<svg xmlns="http://www.w3.org/2000/svg" width="50%" height="50%" viewBox="0 0 100 200"><g transform="rotate(0, 0, 0)">
        <rect x="0" y="0" width="100" height="200" stroke="black" stroke-width="1" fill="none"></rect>
    </g><g transform="
    rotate(0, 10, 10) 
    translate(0, 0)
    scale(1, 1)">
        <polygon points="1.547920003243343, 0.17512765095408733 21.254395401431875, 1.6377428435181134 21.4448781874154, 19.757215615428297 0.8448219316725754, 19.52338147423236 " stroke="Black" stroke-width="0.5" fill="none"></polygon><polygon points="3.004649645065286, 2.2571413172781316 19.178149924685663, 1.3642820068011396 18.424008773212723, 18.23036520981552 3.306036925231128, 18.24307751512199 " stroke="Black" stroke-width="0.5" fill="none"></polygon><polygon points="2.848067576530256, 3.2642143816961746 17.529655288981143, 4.415270111949491 18.813911829593323, 17.90525467632454 4.024711717546993, 17.25266082784322 " stroke="Black" stroke-width="0.5" fill="none"></polygon><polygon points="4.712319328992576, 5.236180349010915 15.626605067027988, 4.800679202647482 17.001998251376992, 16.80202585817061 5.433560825457715, 16.021596268803556 " stroke="Black" stroke-width="0.5" fill="none"></polygon>
    </g>0<g transform="
    rotate(-1.2464708710241226, 10.999046352953183, 30) 
    translate(0, 0)
    scale(1, 1)">
        <polygon points="1.8807517577826718, 20.231432019679126 19.910147818303972, 20.031859183614028 20.36672837505381, 41.64554710900491 0.5302065695042062, 39.5598423042066 " stroke="Black" stroke-width="0.5" fill="none"></polygon><polygon points="3.4238154309940256, 22.671507368363873 18.620622607092674, 23.11323933927645 19.90162273213354, 38.53746649454874 3.3706710994994893, 40.12363275736554 " stroke="Black" stroke-width="0.5" fill="none"></polygon><polygon points="4.218844160821945, 22.84085150506944 16.816611284982546, 24.280167878801866 17.00023203685089, 38.63637854386743 4.500719285309957, 37.6350627234828 " stroke="Black" stroke-width="0.5" fill="none"></polygon><polygon points="4.705812302583303, 25.146190878569477 15.905041312202538, 25.276326293200395 16.27115061337058, 36.37843869324494 5.38727392313544, 36.5733107957506 " stroke="Black" stroke-width="0.5" fill="none"></polygon><polygon points="7.291871715466643, 27.183080607649394 14.907061416937768, 27.027049305826 14.242083805915748, 34.35103912475596 6.070836881724758, 35.51684036232064 " stroke="Black" stroke-width="0.5" fill="none"></polygon><polygon points="8.868204267210906, 28.570772896106423 13.35456927375495, 28.853351544384644 13.676542701900924, 33.73385823952576 8.55886707944844, 32.73438703441802 " stroke="Black" stroke-width="0.5" fill="none"></polygon><polygon points="9.505021889981233, 29.900355035473392 11.495617596013387, 29.564494464985003 11.848810022907212, 31.486423650844756 9.403767890810677, 31.98374091786669 " stroke="Black" stroke-width="0.5" fill="none"></polygon>
    </g>1.6296042104544775<g transform="
    rotate(-2.1368804127601284, 13.459735113336466, 50) 
    translate(0, 0)
    scale(1, 1)">
        <polygon points="0.29162141747780246, 40.63539168118401 20.680938923605385, 41.125586991586864 21.09297510946717, 61.48960284815277 1.116589497816957, 59.94941839467744 " stroke="Black" stroke-width="0.5" fill="none"></polygon><polygon points="2.945855620829449, 41.08196385972007 19.86684965398904, 43.209965173383665 18.71442510282173, 59.607109466462106 1.767359013369699, 60.182630302362256 " stroke="Black" stroke-width="0.5" fill="none"></polygon><polygon points="4.787565505158995, 44.638385275945424 17.273220492437297, 43.0336564983587 17.86442352485689, 57.86356322350144 3.3237500842918046, 57.123771412336446 " stroke="Black" stroke-width="0.5" fill="none"></polygon><polygon points="5.644735118968116, 45.44409910664301 16.84508962033467, 44.818118739903504 15.604211828816176, 57.028935243109885 5.621048325336709, 56.25196191310821 " stroke="Black" stroke-width="0.5" fill="none"></polygon>
    </g>3.4404006455652265<g transform="
    rotate(0.7319550920482936, 14.140741858883255, 70) 
    translate(0, 0)
    scale(1, 1)">
        <polygon points="-0.44663037313019777, 60.038363380433935 21.857001631701337, 61.94088438646213 21.712507621123304, 81.57737198068534 0.07065202346593347, 80.00503162724311 " stroke="Black" stroke-width="0.5" fill="none"></polygon><polygon points="1.9579157738391304, 61.66059042408506 18.621953098284465, 62.31619208499239 18.81264232184088, 79.07123282368126 3.1973844921827403, 79.26521700211708 " stroke="Black" stroke-width="0.5" fill="none"></polygon><polygon points="3.9202870593284365, 62.66674509574071 17.96482052263858, 63.70594633509441 18.149764440204272, 78.3105153453087 3.5461698660765073, 77.3232017151115 " stroke="Black" stroke-width="0.5" fill="none"></polygon><polygon points="5.421968005918422, 66.1665299835201 17.20663415334106, 64.80321631030101 16.926698324833342, 76.26571118635391 4.625675350307186, 75.27675108768838 " stroke="Black" stroke-width="0.5" fill="none"></polygon><polygon points="6.939126621948404, 67.24982564466876 15.307780515242833, 67.30702049663773 13.9649199888202, 74.65638809707383 6.682315082361589, 75.11143703632801 " stroke="Black" stroke-width="0.5" fill="none"></polygon><polygon points="8.22199343884186, 68.38985412042202 13.892592609767238, 68.29834015361592 12.733908237407409, 73.47609993615484 8.543200378555065, 73.48470598382471 " stroke="Black" stroke-width="0.5" fill="none"></polygon><polygon points="10.018442227930278, 69.9829845368114 11.70028294292678, 69.87334114963755 11.980751481005482, 71.88582941115243 9.566062634512445, 71.65270858579412 " stroke="Black" stroke-width="0.5" fill="none"></polygon>
    </g>6.2657897712763955<g transform="
    rotate(11.392930796526045, 3.5312965238964953, 90) 
    translate(0, 0)
    scale(1, 1)">
        <polygon points="0.5254778033347036, 79.65765427400804 19.845903965210137, 79.61767705103792 21.397540398379352, 100.75119262852658 1.2712357551351265, 101.97857336535301 " stroke="Black" stroke-width="0.5" fill="none"></polygon><polygon points="1.8201599132596156, 82.2085548047403 18.258410670211234, 83.34690667235596 18.906625370267523, 100.05437374913075 1.9994566179054587, 99.00441867445008 " stroke="Black" stroke-width="0.5" fill="none"></polygon><polygon points="3.955386616691235, 82.82171005122466 18.777795001908924, 84.74110872201732 16.742312947652778, 97.73699588978596 4.501437540304227, 98.04412796598537 " stroke="Black" stroke-width="0.5" fill="none"></polygon><polygon points="5.661960526322932, 85.4884696201154 16.468479205129317, 85.5300302099613 16.405733053265923, 96.11753977248183 4.95689319324512, 96.78632354335961 " stroke="Black" stroke-width="0.5" fill="none"></polygon><polygon points="7.01645511475595, 86.88814347458766 15.536974553825912, 87.50795037130823 15.13571353711977, 94.99169095261095 6.781867819339381, 95.46352614928969 " stroke="Black" stroke-width="0.5" fill="none"></polygon><polygon points="8.362748729861412, 88.38566934682136 13.033809004924308, 88.29595043428135 12.990470573097149, 93.87943905763466 8.076398126297404, 93.37513259740678 " stroke="Black" stroke-width="0.5" fill="none"></polygon><polygon points="10.08120171037902, 89.444408649511 11.638019817147365, 89.78475580185973 11.898336416341953, 91.82331189228535 9.839186891820923, 91.85836863030111 " stroke="Black" stroke-width="0.5" fill="none"></polygon>
    </g>-7.439607735715283<g transform="
    rotate(-4.374580259263686, 3.60576138977882, 110) 
    translate(0, 0)
    scale(1, 1)">
        <polygon points="0.4795088328082646, 101.52785819453203 21.167962519801513, 101.52260687934168 21.10452684763487, 120.35922641942282 0.11137668412660351, 121.91600960755231 " stroke="Black" stroke-width="0.5" fill="none"></polygon><polygon points="3.262819265700889, 103.35539316892756 19.867916224734824, 102.85216315005135 18.37579017439445, 118.63754215357697 3.099803419555247, 119.63270702793874 " stroke="Black" stroke-width="0.5" fill="none"></polygon><polygon points="2.821544830592257, 103.87159119444598 17.37382670664892, 104.36801933334091 16.689312790090362, 117.16661869400377 4.153293654978568, 117.99721102636946 " stroke="Black" stroke-width="0.5" fill="none"></polygon><polygon points="6.054139427507424, 105.47718840245855 15.688101150615978, 105.79724419914848 17.072181195043555, 116.00939271853068 6.016663224933835, 115.92197535057086 " stroke="Black" stroke-width="0.5" fill="none"></polygon><polygon points="6.0299087717917415, 106.84693008630447 15.400194720698472, 106.70812117686464 14.220299257677993, 114.81739903668047 6.967672510382805, 113.94048636149266 " stroke="Black" stroke-width="0.5" fill="none"></polygon>
    </g>-12.71889334355107<g transform="
    rotate(-6.272065243392099, 16.823539456615357, 130) 
    translate(0, 0)
    scale(1, 1)">
        <polygon points="-0.10051682116512678, 121.79878035209052 21.05221857156194, 120.86663130566225 21.20234777728306, 141.79372021637445 1.108300417221512, 141.5428598022811 " stroke="Black" stroke-width="0.5" fill="none"></polygon><polygon points="3.1677192270807444, 121.15517170348568 20.339020233577173, 121.93676533693598 19.88125644598051, 139.6949935159965 3.1273521156142756, 138.6478988645514 " stroke="Black" stroke-width="0.5" fill="none"></polygon><polygon points="3.382995660935254, 123.91850754599295 18.27432712090083, 124.26355198660067 17.820059437988668, 137.26802439709041 4.810427287457894, 138.68584073801517 " stroke="Black" stroke-width="0.5" fill="none"></polygon><polygon points="5.300974325622978, 125.26630096898927 16.52194343125537, 125.10323538242072 15.870546487545756, 136.56650794207988 5.298730228248144, 136.660404390866 " stroke="Black" stroke-width="0.5" fill="none"></polygon><polygon points="6.764942620311402, 126.20853182767388 14.160349884281057, 127.28925082268707 14.97291327882813, 134.07512460313015 6.116113903561111, 135.35243161577068 " stroke="Black" stroke-width="0.5" fill="none"></polygon><polygon points="8.051151635453023, 128.31237423277122 13.8788046860131, 128.71406342203903 12.66911196479904, 132.72215249334653 7.847816741628421, 133.81655209875404 " stroke="Black" stroke-width="0.5" fill="none"></polygon><polygon points="10.03440007615443, 129.765777235984 11.429647205727331, 129.953685914438 11.976509563346928, 131.55622887346794 10.073984753727713, 131.8314889216852 " stroke="Black" stroke-width="0.5" fill="none"></polygon>
    </g>8.406446076489349<g transform="
    rotate(3.3728398474980636, 28.614635664594374, 150) 
    translate(0, 0)
    scale(1, 1)">
        <polygon points="1.141672172968184, 140.14988570380552 20.65913087448566, 141.37572474322573 21.933482784687772, 160.63534013132224 -0.005575072018692118, 159.6071711112122 " stroke="Black" stroke-width="0.5" fill="none"></polygon><polygon points="1.4151690686060598, 141.65106305174263 19.59542390875143, 143.03202530422988 20.268359640195094, 159.46850524243396 3.377106067213557, 159.60612984087632 " stroke="Black" stroke-width="0.5" fill="none"></polygon><polygon points="3.6751599662708214, 143.5356138249663 18.29065306011929, 143.95404780010338 17.365060524540652, 157.61623012368824 2.870654510460922, 157.79227082774813 " stroke="Black" stroke-width="0.5" fill="none"></polygon><polygon points="4.695099784837699, 145.13978994072193 16.30111768605457, 144.72411660016823 17.168192697232467, 157.2136284883555 4.841566626447632, 156.71110283778594 " stroke="Black" stroke-width="0.5" fill="none"></polygon><polygon points="6.898372005835323, 146.989846367396 14.653352973620667, 146.6770301317049 15.474705968529335, 155.39129681326156 5.989502976663194, 154.09779360473388 " stroke="Black" stroke-width="0.5" fill="none"></polygon><polygon points="8.555186651216633, 148.25315640070875 12.975601177110892, 148.21988192097308 12.83291556310817, 152.65976335334278 8.179750817565601, 153.6073368597339 " stroke="Black" stroke-width="0.5" fill="none"></polygon>
    </g>-11.369707981468276<g transform="
    rotate(19.705813020543133, 22.414803988592013, 170) 
    translate(0, 0)
    scale(1, 1)">
        <polygon points="0.0886226648686157, 160.43229333796995 20.034224427518062, 161.2006631149973 21.383102379407116, 180.9666924331315 1.6075035339392865, 181.79029886315203 " stroke="Black" stroke-width="0.5" fill="none"></polygon><polygon points="2.065056100301762, 162.820415728319 20.045793776622425, 162.72603433455993 19.416209121175655, 179.84575148699693 2.6325560044673173, 178.28014551521454 " stroke="Black" stroke-width="0.5" fill="none"></polygon><polygon points="4.272892153970858, 163.8022744336809 17.69944051542615, 162.7299250992366 18.74383575893893, 177.22606712518066 3.8547189302827496, 177.5370850540684 " stroke="Black" stroke-width="0.5" fill="none"></polygon><polygon points="4.9485624016403795, 164.89838226356179 16.756170642056603, 164.98227771450553 16.47209583907664, 176.56922427967248 5.592442554063544, 175.93459116478326 " stroke="Black" stroke-width="0.5" fill="none"></polygon><polygon points="5.9202321788720225, 167.04080611984364 15.361869016663043, 167.27974069307191 15.075409703165356, 175.09468068335386 6.896723621291762, 173.9951715541406 " stroke="Black" stroke-width="0.5" fill="none"></polygon>
    </g>20.453359567163318<g transform="
    rotate(-14.440568940058712, 33.560975846088496, 190) 
    translate(0, 0)
    scale(1, 1)">
        <polygon points="-0.10709997223122864, 181.64980865805953 19.505424084388864, 180.25046354531588 20.74497622717491, 200.51334129059683 1.874080485722006, 200.49002930059282 " stroke="Black" stroke-width="0.5" fill="none"></polygon><polygon points="2.223857345481198, 181.21067276159158 18.47196728320391, 181.94648695512768 19.678654684972486, 200.26675340689104 3.07917392634584, 199.61320450044875 " stroke="Black" stroke-width="0.5" fill="none"></polygon><polygon points="2.9134451710932674, 184.3809533776495 18.49713511427618, 183.46365008412977 17.343016917492623, 197.42410801726132 3.63853269008369, 196.70071363999517 " stroke="Black" stroke-width="0.5" fill="none"></polygon><polygon points="4.452890563713515, 185.27216309411833 16.51453652209802, 185.51839823940577 15.913228467428855, 196.93236913831294 6.145419943533451, 196.8245796515693 " stroke="Black" stroke-width="0.5" fill="none"></polygon><polygon points="6.610000064530748, 187.5875982325112 15.489646102148217, 187.00053759128198 15.086481229345502, 195.17573684674798 7.267204453661805, 194.57687579105303 " stroke="Black" stroke-width="0.5" fill="none"></polygon><polygon points="8.750136915685113, 188.25832326495552 12.766504591885814, 187.70897246458807 13.640202241094679, 192.79348085492305 8.52154514471921, 193.66883710733075 " stroke="Black" stroke-width="0.5" fill="none"></polygon><polygon points="9.40610686262957, 189.6956692392473 11.472721888954666, 189.42429926041638 11.541104804669555, 191.61552885360285 9.640573418197768, 191.7299534664456 " stroke="Black" stroke-width="0.5" fill="none"></polygon>
    </g>26.545690698036957<g transform="
    rotate(0, 30, 10) 
    translate(0, 0)
    scale(1, 1)">
        <polygon points="20.441604181784413, -0.3105535343727382 40.10510304905718, 1.695058555182836 41.967873269138636, 21.641466530017297 20.858361862632226, 20.13814593319601 " stroke="Black" stroke-width="0.5" fill="none"></polygon><polygon points="21.40837365634498, 2.1439238371711786 39.94912657340886, 3.348301285407869 39.667189457725186, 19.033926670839712 22.768408393403718, 19.288260150289293 " stroke="Black" stroke-width="0.5" fill="none"></polygon><polygon points="23.70034810219814, 4.271716397572273 38.448033052880305, 3.589479354597686 37.395592883844984, 18.826063332759574 22.693242038809675, 17.41156466029168 " stroke="Black" stroke-width="0.5" fill="none"></polygon><polygon points="24.42162433823473, 5.418156895031662 35.794881316986604, 4.817626505066573 36.737153293395195, 15.304600802050832 24.34034954418958, 17.029947014542298 " stroke="Black" stroke-width="0.5" fill="none"></polygon><polygon points="26.170695889498024, 6.134307076980979 35.23616836391395, 7.096722272445908 34.67964463716033, 15.071312592231173 27.351868073916084, 15.369103204134532 " stroke="Black" stroke-width="0.5" fill="none"></polygon><polygon points="28.525904996233738, 7.954979002362992 32.93161257593424, 7.961001027354125 32.781616889990644, 12.753626059532326 28.630012867377754, 13.345378000592035 " stroke="Black" stroke-width="0.5" fill="none"></polygon><polygon points="29.54317874999905, 9.460417433252154 31.976402153401942, 9.916145952949076 31.974177306144394, 11.400605092173109 29.742688261913543, 11.858334819186819 " stroke="Black" stroke-width="0.5" fill="none"></polygon>
    </g>0<g transform="
    rotate(-0.35940011490189594, 31.599883058068976, 30) 
    translate(0, 0)
    scale(1, 1)">
        <polygon points="19.94928117214603, 19.86206263063461 40.682827859661245, 21.177313665461035 41.74944667261151, 40.56597471249363 21.97317821593057, 41.91565140628454 " stroke="Black" stroke-width="0.5" fill="none"></polygon><polygon points="21.08338036515337, 23.2923139004019 38.30376585945772, 21.48255900951703 38.928945668502905, 38.114316824856964 22.950573287250453, 38.4808215524422 " stroke="Black" stroke-width="0.5" fill="none"></polygon><polygon points="23.67856081911695, 23.63532995998482 37.09363270679255, 23.826924237069072 36.68001218541296, 38.66571415055071 24.072220766201774, 37.12668443222108 " stroke="Black" stroke-width="0.5" fill="none"></polygon><polygon points="25.318347965052837, 25.870880048796568 36.76212859431793, 24.279832925380102 36.367211766987076, 36.5922079322782 25.26707766383672, 35.42009900782516 " stroke="Black" stroke-width="0.5" fill="none"></polygon><polygon points="26.75185870282349, 26.693205758970606 35.45488177196266, 27.321336219096892 34.372754841404216, 34.41758755470788 26.19059926576895, 35.496891629015884 " stroke="Black" stroke-width="0.5" fill="none"></polygon><polygon points="28.14072704999583, 28.485980217285654 32.76493051383541, 27.845542714309317 33.21276536787468, 32.7065424688639 28.486046814839195, 33.095081910330265 " stroke="Black" stroke-width="0.5" fill="none"></polygon><polygon points="29.7294463300531, 29.95163275433633 31.716677871790555, 29.99969864526146 31.787704254597028, 31.796816706762655 30.019669078205805, 31.436141589832808 " stroke="Black" stroke-width="0.5" fill="none"></polygon>
    </g>0.6236129834251183<g transform="
    rotate(-1.7297812880748076, 25.98847527777884, 50) 
    translate(0, 0)
    scale(1, 1)">
        <polygon points="21.41190846381809, 41.49969506737216 40.22314536121981, 41.32229430055875 41.40598467745053, 61.97106087790082 21.769901176977513, 60.40185467813086 " stroke="Black" stroke-width="0.5" fill="none"></polygon><polygon points="23.223737934136068, 42.121578116485935 39.461866578219016, 42.882585264570785 39.08711053612055, 58.080261676316006 21.28807093001218, 58.71008364109729 " stroke="Black" stroke-width="0.5" fill="none"></polygon><polygon points="23.514134231484995, 43.856791404226534 37.128231960564094, 44.04616153420789 37.42807375279831, 57.925399832495046 24.744861488352623, 56.968435377728305 " stroke="Black" stroke-width="0.5" fill="none"></polygon><polygon points="24.60951714682879, 44.73912677862384 35.44870120800678, 45.20145084627996 36.10927746168437, 56.61553700967414 25.096060014921893, 55.50232403469659 " stroke="Black" stroke-width="0.5" fill="none"></polygon><polygon points="26.44487136590279, 46.21347743640036 35.59018381521275, 46.54473995209435 34.243624589863245, 54.684707293861955 26.204769286605558, 54.40691260597464 " stroke="Black" stroke-width="0.5" fill="none"></polygon>
    </g>5.988431078780531<g transform="
    rotate(-4.221490593885105, 27.21252330416416, 70) 
    translate(0, 0)
    scale(1, 1)">
        <polygon points="21.10702336706517, 59.9055376761308 39.87387676215536, 61.075256734876824 40.092953741705685, 79.79617617363287 20.685484996027764, 81.92957250519515 " stroke="Black" stroke-width="0.5" fill="none"></polygon><polygon points="23.08783833784082, 62.10531695656797 39.80416299297037, 61.92702673316877 38.30596489849731, 79.86327681834578 22.536580153405183, 78.99321375727219 " stroke="Black" stroke-width="0.5" fill="none"></polygon><polygon points="22.98271210894651, 63.39270276216723 36.73259218052243, 62.992576924849125 36.96439770945427, 77.75494329694594 24.553160858998837, 78.78947027971215 " stroke="Black" stroke-width="0.5" fill="none"></polygon><polygon points="25.96399990098235, 66.0937553122679 36.88635919503009, 66.15624389833823 36.741818206043405, 77.17934626162534 24.284890361332454, 76.58051338870159 " stroke="Black" stroke-width="0.5" fill="none"></polygon><polygon points="26.723668977718194, 67.34626394018389 35.25851668328734, 67.0956763045676 34.41527536816942, 75.13781397317268 27.592598601312638, 74.31302428089491 " stroke="Black" stroke-width="0.5" fill="none"></polygon><polygon points="27.75797597548074, 67.68068806443998 33.05018981044776, 68.4228115771744 32.82780898619353, 73.84495382840137 28.219502086294245, 72.92719591220792 " stroke="Black" stroke-width="0.5" fill="none"></polygon><polygon points="29.665984598535424, 69.86512243667472 32.05002636264573, 69.51977689605734 31.47880921852588, 71.98762842072807 30.069936173345088, 72.08475990027283 " stroke="Black" stroke-width="0.5" fill="none"></polygon>
    </g>6.649772304868883<g transform="
    rotate(9.181642194067685, 18.768402650946502, 90) 
    translate(0, 0)
    scale(1, 1)">
        <polygon points="21.924350613840524, 80.20027284431411 39.53840428408855, 81.87396573827156 40.52011198680988, 100.1774799972586 20.852655264082994, 101.12374714847238 " stroke="Black" stroke-width="0.5" fill="none"></polygon><polygon points="21.079220871433552, 83.40698971730428 38.265477677325194, 81.56456435775898 38.3676845316362, 99.84652763707727 22.164233132641165, 99.39588378574803 " stroke="Black" stroke-width="0.5" fill="none"></polygon><polygon points="23.48765292160887, 83.92179648412954 37.09580669664197, 82.67964496973944 36.92320100837553, 98.37060159297502 24.722361431536594, 97.24864173816134 " stroke="Black" stroke-width="0.5" fill="none"></polygon><polygon points="25.31417303653513, 85.91062579115739 36.944596755701745, 84.62893859824806 35.635386775862784, 97.01086758279394 25.075541086741122, 96.75047366234276 " stroke="Black" stroke-width="0.5" fill="none"></polygon><polygon points="26.951384608355234, 87.21849373199183 35.273027844285465, 87.1125662540083 34.675044706401465, 95.5767788503704 26.87539911156178, 94.69769330772996 " stroke="Black" stroke-width="0.5" fill="none"></polygon><polygon points="28.808489029874398, 88.0144399655588 33.47795943463132, 87.75127802123077 33.0624467889156, 93.67035138891315 28.765687283973573, 93.04013534783833 " stroke="Black" stroke-width="0.5" fill="none"></polygon>
    </g>3.9476832794599765<g transform="
    rotate(-7.611023698339572, 26.091517844820764, 110) 
    translate(0, 0)
    scale(1, 1)">
        <polygon points="21.61674301898301, 101.00513051229035 41.30581738844431, 99.96033351919348 41.18573658925324, 120.67072100646539 20.55595574674875, 119.61204176822291 " stroke="Black" stroke-width="0.5" fill="none"></polygon><polygon points="21.31108496822614, 101.57875012912399 40.04026812018902, 103.11216474153771 39.94110513532138, 119.35820854277927 22.845975987381934, 119.90673884166836 " stroke="Black" stroke-width="0.5" fill="none"></polygon><polygon points="24.467419361693413, 104.668864105537 37.8497002792638, 104.03296707009288 38.08568948657975, 118.57534632501255 24.35403414045209, 116.98282199829399 " stroke="Black" stroke-width="0.5" fill="none"></polygon><polygon points="25.140241202229042, 104.75135608735786 36.30653379994975, 104.91821403828477 35.89098526269679, 116.36416652417392 25.096046886536577, 115.43360206505592 " stroke="Black" stroke-width="0.5" fill="none"></polygon><polygon points="26.44447876866454, 106.46902593758836 33.91247699052702, 107.40621610969112 34.9372920081146, 114.0298602291531 27.16214974005494, 115.07326821176717 " stroke="Black" stroke-width="0.5" fill="none"></polygon>
    </g>2.804575343696669<g transform="
    rotate(-15.46229815431592, 13.203261662030538, 130) 
    translate(0, 0)
    scale(1, 1)">
        <polygon points="21.524360253714576, 119.90231616718702 40.310774013120025, 120.04255855008705 39.521294941535146, 140.5087127250606 21.019093940866078, 140.64060194545692 " stroke="Black" stroke-width="0.5" fill="none"></polygon><polygon points="21.65049480085538, 122.82735653574196 39.29153551034324, 121.24433172230233 39.36720608912057, 138.99775866201657 22.48213717259582, 138.61152170639406 " stroke="Black" stroke-width="0.5" fill="none"></polygon><polygon points="24.79773516007811, 124.50557835641536 36.71648567758673, 122.84352937908582 37.972669276087984, 138.13078566623196 24.157044292921285, 138.38641217689974 " stroke="Black" stroke-width="0.5" fill="none"></polygon><polygon points="25.657477709471117, 125.3897733798645 37.21715960450851, 124.58468556919385 35.50368111079449, 137.2018391031983 25.485255911012995, 137.07939667919857 " stroke="Black" stroke-width="0.5" fill="none"></polygon><polygon points="26.28657135679984, 126.71508793616236 33.92523941700681, 126.7665891045322 34.89971613979689, 133.94795344741277 26.607156379780875, 134.97971479782416 " stroke="Black" stroke-width="0.5" fill="none"></polygon><polygon points="28.23643888074314, 128.1223614472366 33.198236872199544, 128.43748701125273 33.704766503848475, 133.2611287254203 28.195145931823888, 133.31884688305706 " stroke="Black" stroke-width="0.5" fill="none"></polygon>
    </g>3.578323742856359<g transform="
    rotate(4.362840961920682, 43.70489947772061, 150) 
    translate(0, 0)
    scale(1, 1)">
        <polygon points="20.93913372961458, 141.65322668304285 41.427216286289436, 141.98115451639725 40.58904959825246, 160.51125551245804 21.457782941107293, 161.55332968813394 " stroke="Black" stroke-width="0.5" fill="none"></polygon><polygon points="22.108565243328506, 142.19486173523305 39.29055711598003, 142.7751172017325 39.7433264208239, 160.04383781657492 21.551883189584075, 158.2064018001689 " stroke="Black" stroke-width="0.5" fill="none"></polygon><polygon points="24.598053032392535, 143.22411471931784 38.6764822773644, 144.5892182628457 37.573934468963984, 158.2814624511685 24.432955706511756, 157.44293265751938 " stroke="Black" stroke-width="0.5" fill="none"></polygon><polygon points="25.272573521794392, 144.98547436599182 36.47030799186366, 144.86623666676212 35.876062175657665, 156.41127592217575 24.7126223881366, 156.36386735813136 " stroke="Black" stroke-width="0.5" fill="none"></polygon><polygon points="26.822872964608035, 146.9504324288441 35.328117166078655, 146.2413219887589 34.57602922364157, 154.33492851802103 26.226114785903377, 154.45429521634298 " stroke="Black" stroke-width="0.5" fill="none"></polygon><polygon points="28.669661444065127, 148.54557142998223 32.79886340624367, 148.73425814711695 33.05176799670363, 152.76653510183263 28.09001302764407, 153.09863585048618 " stroke="Black" stroke-width="0.5" fill="none"></polygon>
    </g>1.4787015878116883<g transform="
    rotate(5.8907859386656405, 48.73268197198396, 170) 
    translate(0, 0)
    scale(1, 1)">
        <polygon points="20.200869841305824, 160.98179762834488 40.44290906506296, 160.79411929714175 40.26589130546548, 179.8410934076609 20.993405583534138, 181.4258931994918 " stroke="Black" stroke-width="0.5" fill="none"></polygon><polygon points="22.315944692625656, 161.12488519163549 38.15637977114561, 161.53346894562208 39.95630921900313, 179.16367573740544 23.36939021333232, 179.05908845787744 " stroke="Black" stroke-width="0.5" fill="none"></polygon><polygon points="23.321183983973924, 164.03340361471655 37.333950496386706, 162.83188242564182 38.79906929233342, 177.2349311436624 24.696257998367358, 177.56614658743183 " stroke="Black" stroke-width="0.5" fill="none"></polygon><polygon points="25.582162906872654, 166.0881839412956 36.72235106083187, 165.00980087726208 35.722497538602795, 176.12233142118927 25.87011080642054, 176.13641502810958 " stroke="Black" stroke-width="0.5" fill="none"></polygon>
    </g>23.525679790386874<g transform="
    rotate(-20.06907598036642, 52.971200174840654, 190) 
    translate(0, 0)
    scale(1, 1)">
        <polygon points="19.76502134772245, 180.76409239503806 40.327371978944115, 179.68389808414327 41.80967092802766, 199.94749974515074 19.890848256262984, 201.86196115424124 " stroke="Black" stroke-width="0.5" fill="none"></polygon><polygon points="23.228274385836986, 182.177638295132 38.67439692440155, 183.37541797129367 38.58529540332547, 198.54391388425287 22.11519676387651, 200.2190584706997 " stroke="Black" stroke-width="0.5" fill="none"></polygon><polygon points="22.890746936603804, 183.97058623671828 38.18087543348119, 183.96085346720855 36.673642540983195, 198.71656638600734 24.387092497737786, 196.84975053904756 " stroke="Black" stroke-width="0.5" fill="none"></polygon><polygon points="24.374970372824087, 185.05764626282775 36.48265300420118, 184.78799966568369 35.695192001916695, 196.30214998516036 25.855067096564024, 195.84943269359923 " stroke="Black" stroke-width="0.5" fill="none"></polygon><polygon points="26.05786332702555, 186.59987301678004 35.196277023385036, 187.52020906245284 34.88851157680496, 195.1953388023505 26.56259773120408, 194.58456359974494 " stroke="Black" stroke-width="0.5" fill="none"></polygon><polygon points="28.71254721649854, 187.63469363611856 33.52722067120591, 188.63346542135648 32.99002694251057, 192.7548591528125 27.62144380707108, 192.98079301334104 " stroke="Black" stroke-width="0.5" fill="none"></polygon><polygon points="29.687191238969426, 189.81430925063052 32.03991200126196, 189.6973536052667 31.69702280323902, 191.44734539403794 29.64089594070895, 191.52526175865398 " stroke="Black" stroke-width="0.5" fill="none"></polygon>
    </g>-6.28661324066611<g transform="
    rotate(0, 50, 10) 
    translate(0, 0)
    scale(1, 1)">
        <polygon points="40.67701164595395, 0.37642335902406554 61.629234628349366, 0.32610032510728126 59.734115197228284, 21.016491990464313 41.409231310060505, 21.716710842973455 " stroke="Black" stroke-width="0.5" fill="none"></polygon><polygon points="42.142366364381175, 3.1543416013011933 58.43515686545165, 2.302771945336355 59.679885770069255, 19.71858480709237 42.94796865691003, 18.18009882792049 " stroke="Black" stroke-width="0.5" fill="none"></polygon><polygon points="43.57599144529111, 3.303744614910179 57.13829802352916, 4.081570772978277 58.251317053687174, 18.46819297907845 44.166316353137596, 17.977352203978047 " stroke="Black" stroke-width="0.5" fill="none"></polygon><polygon points="45.67725777284988, 5.250281122472284 56.23452695040125, 5.012847415908315 56.42696233550271, 16.564751966533663 46.026653813512006, 15.903397542565102 " stroke="Black" stroke-width="0.5" fill="none"></polygon><polygon points="47.21972111105706, 6.368683808998988 54.01687660495088, 6.252319372718425 54.864083851711726, 15.148165895967075 47.56484720984461, 14.780190472618518 " stroke="Black" stroke-width="0.5" fill="none"></polygon>
    </g>0<g transform="
    rotate(2.057693373696303, 52.81361672613859, 30) 
    translate(0, 0)
    scale(1, 1)">
        <polygon points="41.68916585385234, 19.815915830723224 61.578310674350796, 20.315477135387184 61.51270067479906, 41.04313705553871 39.57973427423397, 41.066277185924946 " stroke="Black" stroke-width="0.5" fill="none"></polygon><polygon points="42.30562525707034, 22.913355149220642 58.522967546847724, 22.996422760856127 59.94205595465835, 38.16854637021926 41.61487200154226, 38.583769212130385 " stroke="Black" stroke-width="0.5" fill="none"></polygon><polygon points="43.38120010210868, 22.860678016267848 57.525460414826114, 24.40203882064685 57.76638479931403, 37.762331613522 44.49931704435364, 37.68881291919976 " stroke="Black" stroke-width="0.5" fill="none"></polygon><polygon points="45.88964277836388, 24.88145304991967 56.60456289347768, 24.292926805259537 55.4698671853459, 36.33201007345064 44.85917871621897, 35.91200476110461 " stroke="Black" stroke-width="0.5" fill="none"></polygon><polygon points="46.783151800146875, 26.1377527213059 54.299462514380096, 26.395700304126507 55.403910986042106, 34.041225915667766 46.081978534821594, 34.13816789859058 " stroke="Black" stroke-width="0.5" fill="none"></polygon><polygon points="48.11791067011503, 28.750106500933594 52.68452687740529, 27.738176290790697 53.04441072990322, 33.65478066180842 47.82875659650949, 33.173945461650874 " stroke="Black" stroke-width="0.5" fill="none"></polygon><polygon points="50.04471202030886, 29.98257731047691 52.06982987339279, 29.59918293460202 51.99833175232388, 31.77819308233753 49.899993497932975, 32.08438178852023 " stroke="Black" stroke-width="0.5" fill="none"></polygon>
    </g>-1.4179083221896351<g transform="
    rotate(-0.7405919960034781, 47.8474532030439, 50) 
    translate(0, 0)
    scale(1, 1)">
        <polygon points="41.303269769101746, 39.74134237229577 61.140570876533154, 39.98927676216236 59.50536309462579, 60.521446898936475 39.73505962803511, 61.26686080449475 " stroke="Black" stroke-width="0.5" fill="none"></polygon><polygon points="43.01239318739966, 41.50741509134162 58.508778145885714, 41.65174805355569 59.78188382422175, 58.88367535810372 43.3770552263384, 59.44439877410829 " stroke="Black" stroke-width="0.5" fill="none"></polygon><polygon points="42.976057125045884, 43.79604772935422 56.79285389265764, 42.78143018616978 58.43990633180792, 57.07068442155074 43.76630147089296, 57.82246759565383 " stroke="Black" stroke-width="0.5" fill="none"></polygon><polygon points="45.40218180370484, 45.12742015504535 57.18217601997587, 45.771971630055084 56.58245808740253, 56.676412470363445 44.71928764840532, 55.960454932495594 " stroke="Black" stroke-width="0.5" fill="none"></polygon><polygon points="46.042407108891005, 46.79032313620384 54.18223610322857, 47.54050637135159 54.5802809888893, 54.144198151793496 47.47944299329093, 54.12849901786143 " stroke="Black" stroke-width="0.5" fill="none"></polygon><polygon points="48.486724964042594, 48.40909649269098 52.83932703468453, 48.017953016839016 52.88362927852909, 52.595252406694556 48.284692543498146, 53.32012874730137 " stroke="Black" stroke-width="0.5" fill="none"></polygon>
    </g>-5.425251565196552<g transform="
    rotate(3.9701141992852733, 44.03061402261046, 70) 
    translate(0, 0)
    scale(1, 1)">
        <polygon points="39.989812979225846, 60.335534659644075 61.453290637261304, 60.8783555430724 59.62555411585889, 81.34043997962499 40.7923356805828, 81.92449497318017 " stroke="Black" stroke-width="0.5" fill="none"></polygon><polygon points="42.063903189660024, 61.512435903357414 59.52832987229353, 62.42738515620737 60.33671423679464, 79.99301866520048 43.197172764501836, 79.67009302320858 " stroke="Black" stroke-width="0.5" fill="none"></polygon><polygon points="42.74061058166651, 63.7189348077754 56.97703214662888, 63.062205538828536 57.0707320225267, 78.48277333473204 42.90216771483194, 77.84680717449365 " stroke="Black" stroke-width="0.5" fill="none"></polygon><polygon points="46.049711081249, 65.99453064930657 55.822268280849784, 65.57082595353913 56.90043646651468, 76.24719191644773 45.64569172507566, 76.74205727335318 " stroke="Black" stroke-width="0.5" fill="none"></polygon><polygon points="47.57674141265464, 66.5516130234073 55.56045351228662, 67.05694322107405 55.36244684242079, 74.01676621499064 47.19363205375084, 74.43386469002023 " stroke="Black" stroke-width="0.5" fill="none"></polygon><polygon points="48.27479908153645, 67.66833414135114 53.632451384861454, 67.67805496642126 53.62472348688243, 72.78042819438136 47.99189743987973, 73.40860302195732 " stroke="Black" stroke-width="0.5" fill="none"></polygon><polygon points="49.460450916416306, 69.67149778767948 51.4285043030464, 70.03574989511226 52.059291640873504, 71.53201550275637 49.749721794798944, 71.57203372971028 " stroke="Black" stroke-width="0.5" fill="none"></polygon>
    </g>4.6497829129723804<g transform="
    rotate(-5.211610816717891, 54.46075996506691, 90) 
    translate(0, 0)
    scale(1, 1)">
        <polygon points="40.08915026871375, 81.55763564328296 61.85415181757361, 80.68130286441885 61.25913819844504, 101.1040971921984 39.794578014182775, 100.557443655282 " stroke="Black" stroke-width="0.5" fill="none"></polygon><polygon points="42.49574511811571, 82.98015102146192 58.739533334025, 82.19357498117803 59.225755988749526, 100.14618182774201 42.362273276785174, 99.72641161048215 " stroke="Black" stroke-width="0.5" fill="none"></polygon><polygon points="42.99744168122133, 82.77501330637693 58.06946453256129, 84.77507970387792 58.58493506320888, 98.37775786097811 43.59279558049583, 98.79679413667391 " stroke="Black" stroke-width="0.5" fill="none"></polygon><polygon points="45.58271773632669, 85.90444829650278 55.623169289681, 85.47007242345298 55.86081482010685, 96.63200690645655 44.66116961015138, 96.73537910440591 " stroke="Black" stroke-width="0.5" fill="none"></polygon>
    </g>-2.351248229347899<g transform="
    rotate(1.5909206105623888, 58.539339736597526, 110) 
    translate(0, 0)
    scale(1, 1)">
        <polygon points="39.81273385857968, 101.11600439310806 61.43122124225813, 99.78020108465958 60.51005385741957, 120.95393374569625 40.78975405235753, 121.45568990559366 " stroke="Black" stroke-width="0.5" fill="none"></polygon><polygon points="43.2745751297574, 102.28894614567726 58.698868497383046, 103.01398333481764 58.76968626974963, 118.19893702957584 42.362979899006966, 118.87780528638322 " stroke="Black" stroke-width="0.5" fill="none"></polygon><polygon points="43.20907423312355, 103.21067407439169 58.72903038206761, 103.29989429818175 56.86762284883916, 116.72409088101178 43.41140274650708, 118.48991600547461 " stroke="Black" stroke-width="0.5" fill="none"></polygon><polygon points="45.19731235730619, 105.48623664575946 55.54093560194427, 105.23590822936183 57.19262970999665, 115.3868469179713 44.859572803940445, 116.39400938293856 " stroke="Black" stroke-width="0.5" fill="none"></polygon><polygon points="46.03768879953166, 106.80992108308065 55.118905786217326, 106.25243982785182 54.89777325305994, 115.3925090832184 45.95141499010338, 115.33543991006763 " stroke="Black" stroke-width="0.5" fill="none"></polygon>
    </g>4.161128827715977<g transform="
    rotate(-13.289573368131318, 45.96395898374738, 130) 
    translate(0, 0)
    scale(1, 1)">
        <polygon points="40.406196210796516, 120.27849109859362 59.93060145332117, 119.68953998508597 59.81999172613661, 141.73651617186982 40.63053718273152, 140.7116791735682 " stroke="Black" stroke-width="0.5" fill="none"></polygon><polygon points="43.02695139153285, 123.40890649034924 59.18017227154522, 121.6762694602355 58.80208942790157, 139.95914823502085 42.88011364106137, 140.2799518537879 " stroke="Black" stroke-width="0.5" fill="none"></polygon><polygon points="44.10427965502529, 124.69355968376922 58.53561217096592, 123.76028593674138 56.74278966382217, 137.75630336783067 42.83668564809408, 137.02101873031359 " stroke="Black" stroke-width="0.5" fill="none"></polygon><polygon points="46.11760290052445, 125.71429440439573 57.21241008034418, 125.4518061970839 56.23291213098682, 136.67976076577656 45.45211508332937, 136.98385635012593 " stroke="Black" stroke-width="0.5" fill="none"></polygon><polygon points="46.079917711316746, 126.84446176222828 54.067546610071865, 126.70621922640828 54.04922555084544, 135.2464161623808 46.65302709344283, 134.73615424735203 " stroke="Black" stroke-width="0.5" fill="none"></polygon>
    </g>-5.7069242799625925<g transform="
    rotate(-10.542161627988941, 48.89714384687843, 150) 
    translate(0, 0)
    scale(1, 1)">
        <polygon points="39.90212212348672, 140.37922630815996 59.80852240817925, 140.99422104979126 61.49980504555134, 159.64748341620478 40.833384260032915, 159.96196908645848 " stroke="Black" stroke-width="0.5" fill="none"></polygon><polygon points="41.67227734617467, 141.3073506301191 58.99877616034395, 142.19862101746145 59.97583531550119, 160.2397269588855 42.69305617985373, 158.80061854900268 " stroke="Black" stroke-width="0.5" fill="none"></polygon><polygon points="43.17939617886869, 144.09231967416494 58.27884327107026, 143.93017012624523 57.47762730169625, 158.49383802532435 44.43398214878466, 158.1909339527142 " stroke="Black" stroke-width="0.5" fill="none"></polygon><polygon points="45.17555355989949, 144.83594189404477 56.71840078867681, 145.62147402392105 55.98351420590856, 155.3851059505861 44.616530417907015, 157.12910890237154 " stroke="Black" stroke-width="0.5" fill="none"></polygon><polygon points="46.67335102325848, 147.3857347327325 53.94176595780009, 147.09862587382094 54.67304498499782, 154.47085041028592 46.47734516398874, 154.91132581741562 " stroke="Black" stroke-width="0.5" fill="none"></polygon>
    </g>-16.511084638460183<g transform="
    rotate(-20.71256708325178, 44.61030756881767, 170) 
    translate(0, 0)
    scale(1, 1)">
        <polygon points="41.853605611930824, 160.808848975712 61.44100766760627, 160.47261096401527 61.02736064523505, 179.8223599173976 40.42700880628172, 181.02672497610038 " stroke="Black" stroke-width="0.5" fill="none"></polygon><polygon points="42.55137457863567, 163.0253098867851 59.21693349964151, 162.62723620399777 60.07599888090906, 178.95870028998843 41.17894757963654, 180.3585889663212 " stroke="Black" stroke-width="0.5" fill="none"></polygon><polygon points="43.909986883143056, 164.63658456366645 57.14638709906227, 164.63784482938286 57.7124368968272, 176.8699458374917 42.79331718672051, 176.92506794963344 " stroke="Black" stroke-width="0.5" fill="none"></polygon><polygon points="45.13738921219643, 165.14835758706897 55.86585593164833, 164.93215455438138 56.07378189576545, 176.47841074644188 45.682537161356365, 175.40879697982515 " stroke="Black" stroke-width="0.5" fill="none"></polygon><polygon points="47.19661035962764, 166.59290389488942 53.97999521944877, 167.54194629107263 55.11839245535694, 174.66342085285532 46.771082247344594, 174.48141614449418 " stroke="Black" stroke-width="0.5" fill="none"></polygon><polygon points="48.05219619607923, 167.9461185006941 53.176021223253265, 168.43396599447416 52.78070159919853, 173.11446918217914 48.12215562481089, 173.2469021327724 " stroke="Black" stroke-width="0.5" fill="none"></polygon><polygon points="49.56854708005027, 169.79935935427434 51.827451461167634, 169.47186104501165 51.98589465976211, 171.49095677574834 50.03371856054247, 171.56956100648867 " stroke="Black" stroke-width="0.5" fill="none"></polygon>
    </g>12.000782972001119<g transform="
    rotate(-23.01841062912439, 29.49087174301621, 190) 
    translate(0, 0)
    scale(1, 1)">
        <polygon points="40.825305455550655, 179.57298831947406 60.60103621775396, 180.77897624129832 60.9149790450676, 200.22313929260417 40.509892139334674, 201.512554155063 " stroke="Black" stroke-width="0.5" fill="none"></polygon><polygon points="41.54747948193258, 182.50206694989086 60.02711498667615, 182.53879186807464 58.68316221134231, 199.80117296209497 42.769862179916565, 198.59995928174092 " stroke="Black" stroke-width="0.5" fill="none"></polygon><polygon points="43.28052998492743, 184.1622335648683 56.931128920675164, 183.5546915968777 58.54720618855864, 198.133426029578 44.374189120729284, 196.93788506184157 " stroke="Black" stroke-width="0.5" fill="none"></polygon><polygon points="45.068008916710454, 185.7911973477121 56.372126547046314, 185.31146922289975 55.958674010569695, 195.2873365089804 45.56264759195892, 195.7886954634676 " stroke="Black" stroke-width="0.5" fill="none"></polygon><polygon points="46.77318448331165, 187.00606829957883 55.556223282319614, 186.92837135055407 54.64405304190182, 195.47966907737046 47.03320242871536, 194.02094707963133 " stroke="Black" stroke-width="0.5" fill="none"></polygon><polygon points="48.034625975867264, 188.79721524674915 52.82718932073922, 188.06570744281962 52.66674334730233, 193.68607885630018 47.81318396085965, 192.9167192221926 " stroke="Black" stroke-width="0.5" fill="none"></polygon>
    </g>-4.815924738228308<g transform="
    rotate(0, 70, 10) 
    translate(0, 0)
    scale(1, 1)">
        <polygon points="61.53687814318906, -0.041256697762509065 80.38934297362312, 0.16163056287189936 79.646556575789, 21.784179881102524 60.17630693329589, 20.672106012327593 " stroke="Black" stroke-width="0.5" fill="none"></polygon><polygon points="62.708748242740796, 1.3499334331508497 78.83301944191537, 1.5367471504577241 79.39733358352092, 20.25979931028052 62.008655157665864, 18.55418965568633 " stroke="Black" stroke-width="0.5" fill="none"></polygon><polygon points="63.3789281850223, 2.8175749426145154 77.86937740904074, 4.740030320138982 77.49199488492229, 18.402296429356422 62.718557030086, 18.29470334699744 " stroke="Black" stroke-width="0.5" fill="none"></polygon><polygon points="65.76658063196608, 4.870324073297977 76.20504563483983, 4.452441870828167 75.41553940858944, 16.632039271033104 64.70583003310573, 15.534640526177805 " stroke="Black" stroke-width="0.5" fill="none"></polygon>
    </g>0<g transform="
    rotate(1.384475591289637, 72.11629106400605, 30) 
    translate(0, 0)
    scale(1, 1)">
        <polygon points="61.76053855034533, 21.454422233110563 81.15699751714587, 21.360598385786904 79.53236674203217, 39.59142823425487 60.28344180094971, 40.80736290727663 " stroke="Black" stroke-width="0.5" fill="none"></polygon><polygon points="62.88486343959052, 21.87854416311847 78.2421210570014, 23.320858188805445 78.37597975824212, 39.018280174275255 62.89906977015201, 38.79998665170183 " stroke="Black" stroke-width="0.5" fill="none"></polygon><polygon points="64.676667477655, 24.22355782434389 76.94323139250164, 24.382894074226044 77.1327241893886, 38.250588175002406 64.4927152518354, 38.596524333234115 " stroke="Black" stroke-width="0.5" fill="none"></polygon><polygon points="65.36891016179119, 24.58400080807376 75.74046333982604, 25.6990051603228 76.82771172307334, 37.192324989809194 64.46606191059266, 36.496030549097085 " stroke="Black" stroke-width="0.5" fill="none"></polygon><polygon points="66.196677708217, 27.01339804113846 75.12514041199283, 27.072407998556308 75.02749047674043, 34.488443740821 67.18562389057885, 35.433556898278184 " stroke="Black" stroke-width="0.5" fill="none"></polygon><polygon points="67.86030104622303, 27.85381380680443 72.80771228841017, 27.701639474205034 73.21861365047916, 33.54788659241272 68.3825170227531, 33.35580494002515 " stroke="Black" stroke-width="0.5" fill="none"></polygon><polygon points="69.50247417616805, 30.09295428525084 72.09893890014104, 29.58338373109592 71.63593152552669, 31.561915551845644 70.01709516293846, 31.69529794407695 " stroke="Black" stroke-width="0.5" fill="none"></polygon>
    </g>-1.7524087494115315<g transform="
    rotate(-2.5614295469625343, 74.26783145843191, 50) 
    translate(0, 0)
    scale(1, 1)">
        <polygon points="60.14406550614823, 41.67543461272674 81.71278015826671, 40.70104373610322 81.35241289811243, 60.24890686558521 61.56298429245227, 60.65470975362813 " stroke="Black" stroke-width="0.5" fill="none"></polygon><polygon points="61.14820986347733, 42.466271109836306 78.60000484552391, 43.25081607910974 79.95342610501024, 59.16628046168 63.06285302439752, 59.0311392493704 " stroke="Black" stroke-width="0.5" fill="none"></polygon><polygon points="63.44530541700964, 43.00300438735992 77.71929638568291, 44.078981606962174 78.05133282882397, 58.78196500854872 63.81448398232567, 58.30548978264288 " stroke="Black" stroke-width="0.5" fill="none"></polygon><polygon points="65.49169976493212, 45.67663654722158 77.20092135969634, 45.75601004316136 76.8893007013993, 56.42781714202977 65.11195043911994, 57.21597031595777 " stroke="Black" stroke-width="0.5" fill="none"></polygon><polygon points="66.287061505778, 46.86629633887774 74.22870605386431, 47.53817982690166 74.5616004150164, 54.30143242696935 66.29492877575665, 53.99646914127227 " stroke="Black" stroke-width="0.5" fill="none"></polygon><polygon points="68.18341791057432, 47.82463308119767 73.08105314550379, 47.69728050237643 73.89834940929069, 53.55644607886626 67.88657369030311, 53.18526615733016 " stroke="Black" stroke-width="0.5" fill="none"></polygon>
    </g>0.6301928456603267<g transform="
    rotate(2.0501169474706256, 75.32579344313905, 70) 
    translate(0, 0)
    scale(1, 1)">
        <polygon points="60.36256380176377, 61.14261383743707 80.1953753346913, 59.97713981932788 80.3752550731611, 81.59041802704212 60.268530524670204, 80.49328970512448 " stroke="Black" stroke-width="0.5" fill="none"></polygon><polygon points="62.35614887530332, 61.8507795572963 78.895046139378, 62.25329512807908 79.735133880726, 79.4925145932814 61.54895284864816, 79.73636510001442 " stroke="Black" stroke-width="0.5" fill="none"></polygon><polygon points="63.42472701648013, 63.69507330918441 77.33791472215401, 64.3547424042693 78.27765712152797, 77.71621810682404 63.399570530382164, 77.7792359232289 " stroke="Black" stroke-width="0.5" fill="none"></polygon><polygon points="66.06788708489925, 66.06860529110213 75.47894143866755, 64.29834656198642 76.83487688397207, 76.48631984795607 65.72637820339948, 77.05746347527572 " stroke="Black" stroke-width="0.5" fill="none"></polygon><polygon points="66.27043108280263, 66.12633316676639 74.06776243426526, 67.3576352342583 75.02968882202008, 73.96289881749539 67.42797318801581, 74.45132853676824 " stroke="Black" stroke-width="0.5" fill="none"></polygon><polygon points="68.73823028525908, 68.66709872386032 73.14591855032103, 68.14018221122724 72.83666562623462, 73.84339386239796 68.1605529473654, 73.83527799052202 " stroke="Black" stroke-width="0.5" fill="none"></polygon><polygon points="70.04078114033598, 69.68907269657228 71.68414073759143, 69.95667981966405 71.99422202153242, 71.78616294321047 69.94190191122377, 72.04038166206796 " stroke="Black" stroke-width="0.5" fill="none"></polygon>
    </g>7.885951500649618<g transform="
    rotate(9.006964498035238, 61.141643504095626, 90) 
    translate(0, 0)
    scale(1, 1)">
        <polygon points="61.51249979043132, 81.17409014442413 80.9996575259205, 80.77955112444583 79.96286792506022, 100.25099627745756 59.85998561237642, 100.13316717852445 " stroke="Black" stroke-width="0.5" fill="none"></polygon><polygon points="61.91370023049693, 82.4873857094704 79.77759409470184, 81.66364113282935 78.94145647567656, 99.16473186471445 62.055525504440325, 98.23630323041212 " stroke="Black" stroke-width="0.5" fill="none"></polygon><polygon points="64.33374325043425, 84.58898675699092 77.98002544612075, 83.2514878871604 78.35688979886211, 96.7533241539402 63.705461108471816, 98.46032909720208 " stroke="Black" stroke-width="0.5" fill="none"></polygon><polygon points="64.3964555065169, 84.85467821664173 75.92537526522962, 85.54754695463212 76.11609937239814, 96.24527322210298 65.9188215582595, 95.594794119001 " stroke="Black" stroke-width="0.5" fill="none"></polygon><polygon points="66.19271300871267, 86.80067609714686 75.12678579536006, 86.06282808467681 73.99155874608805, 95.18147154198627 67.45178941767533, 94.87694883304317 " stroke="Black" stroke-width="0.5" fill="none"></polygon><polygon points="68.10110247509853, 88.88466317173211 72.74644612708931, 88.37152572412792 72.91807867512101, 93.67882085305519 67.80014471424411, 92.86878297176541 " stroke="Black" stroke-width="0.5" fill="none"></polygon><polygon points="69.78274948473367, 89.9272869005995 71.846178359791, 90.0012568354438 71.75900260005803, 92.00750532460286 69.99591444452469, 91.4025832403875 " stroke="Black" stroke-width="0.5" fill="none"></polygon>
    </g>-0.41411042426146594<g transform="
    rotate(4.7061782353378945, 65.22857780775459, 110) 
    translate(0, 0)
    scale(1, 1)">
        <polygon points="61.44325990465234, 101.9054447037711 81.80008061382715, 100.99514016788983 80.85225045910535, 121.46959484277964 60.29948969211671, 121.14467641514058 " stroke="Black" stroke-width="0.5" fill="none"></polygon><polygon points="62.46520091809313, 102.73376781828689 79.72266983834808, 102.20935660902991 80.14971462504184, 120.12078610971375 61.17219498221765, 118.2298176357566 " stroke="Black" stroke-width="0.5" fill="none"></polygon><polygon points="63.05983664459749, 103.29301372079367 77.69678701425579, 104.19566941399621 78.40683159897664, 117.79876538038415 62.95066057044323, 118.30747821791923 " stroke="Black" stroke-width="0.5" fill="none"></polygon><polygon points="64.89848781509615, 105.79172557321326 76.05611770887052, 104.36656482821385 75.72845153185861, 117.02357401613463 65.56844855771526, 116.97362213740257 " stroke="Black" stroke-width="0.5" fill="none"></polygon><polygon points="67.4996171057656, 107.08773792205736 74.02709558157633, 107.22578478814665 74.92500504113745, 115.0260560373645 66.22405808535139, 114.47835394361917 " stroke="Black" stroke-width="0.5" fill="none"></polygon><polygon points="68.8381230106268, 107.94615232054102 73.58773943780275, 107.97852177305059 73.02570811255919, 112.78423608362696 68.22727355025928, 112.99888375926994 " stroke="Black" stroke-width="0.5" fill="none"></polygon>
    </g>14.828285003241444<g transform="
    rotate(12.104139197244475, 63.04968432933821, 130) 
    translate(0, 0)
    scale(1, 1)">
        <polygon points="61.98974670955718, 121.67995352268889 80.6537370370295, 120.26828641289195 81.99184371643085, 140.16349091626034 59.97088743365299, 140.37866610137044 " stroke="Black" stroke-width="0.5" fill="none"></polygon><polygon points="61.651245745561226, 121.32391623267621 79.20254078493777, 123.05742476788001 78.07709551401693, 138.58622111604086 62.3067667950925, 139.62458333356346 " stroke="Black" stroke-width="0.5" fill="none"></polygon><polygon points="62.75053363629039, 124.17916963969967 77.50180982595492, 123.52981638372823 78.38475064903936, 136.71286663341036 64.31249305892958, 136.8223789395167 " stroke="Black" stroke-width="0.5" fill="none"></polygon><polygon points="65.66482923527562, 124.48037904727218 76.61460518996849, 125.74578670704591 77.09623535974148, 136.81939540971467 65.72106983751799, 136.58584730772526 " stroke="Black" stroke-width="0.5" fill="none"></polygon><polygon points="67.48684844058991, 127.08489334695345 74.65121996149709, 126.73085684479868 75.0570993817697, 134.69902648569467 66.17168422038327, 134.2849039372727 " stroke="Black" stroke-width="0.5" fill="none"></polygon><polygon points="68.78589129720173, 127.64577258978971 73.54798927061674, 127.96226777750934 73.61377294838893, 133.29982242113962 68.39963350409987, 133.83630083780696 " stroke="Black" stroke-width="0.5" fill="none"></polygon><polygon points="69.72444831400281, 129.9302273036536 71.43099362061257, 129.74467323635878 71.47728340306669, 132.01183255995323 69.74633487763893, 131.73540231592148 " stroke="Black" stroke-width="0.5" fill="none"></polygon>
    </g>2.81745426971095<g transform="
    rotate(9.969691480318303, 62.129992344637685, 150) 
    translate(0, 0)
    scale(1, 1)">
        <polygon points="61.77447380724994, 139.77587474733966 79.6453521303751, 141.43525012019055 80.52668512620235, 159.54372203737114 61.94413454293053, 159.8720834302679 " stroke="Black" stroke-width="0.5" fill="none"></polygon><polygon points="63.04177112993865, 142.54493681520702 78.43414564244152, 141.0777149861496 78.59322676328978, 158.82224782314913 61.96381968622842, 160.3138182910798 " stroke="Black" stroke-width="0.5" fill="none"></polygon><polygon points="64.25282085506558, 143.29743286731338 78.16378302899126, 143.6012093630814 78.09224857323883, 157.90703755928556 64.49214698141228, 158.25710534010278 " stroke="Black" stroke-width="0.5" fill="none"></polygon><polygon points="65.66088711363668, 144.31864222187224 76.97895656889018, 145.45334875301555 76.72119941275868, 157.12967896790963 66.22917000803926, 157.05211172112087 " stroke="Black" stroke-width="0.5" fill="none"></polygon><polygon points="66.94367383688096, 147.36159972133385 74.91625539450638, 146.16081887783264 74.87790980633896, 155.11366432116247 66.18061766912044, 155.368345685395 " stroke="Black" stroke-width="0.5" fill="none"></polygon><polygon points="67.73027725905749, 148.8440762890457 73.23675909028103, 147.74284915091985 72.89316051109321, 153.3414397430799 67.8964207996724, 153.4842329028304 " stroke="Black" stroke-width="0.5" fill="none"></polygon>
    </g>13.21942110760154<g transform="
    rotate(3.3271946516453, 46.765180923753746, 170) 
    translate(0, 0)
    scale(1, 1)">
        <polygon points="60.59764042528602, 160.82982796821986 81.84113747510315, 159.9794022890534 81.55651489494815, 181.40544608338445 60.86240229288489, 181.09741546127782 " stroke="Black" stroke-width="0.5" fill="none"></polygon><polygon points="62.50094868261197, 162.74418132128233 79.45788674963734, 161.21078979094807 79.85257166518122, 179.71306327748061 61.23650624489357, 178.6904097220603 " stroke="Black" stroke-width="0.5" fill="none"></polygon><polygon points="63.046620249841084, 163.26369564001806 78.02767472755596, 163.69210428499983 76.66365392385953, 178.01827608654563 63.66073383920645, 178.82041287656207 " stroke="Black" stroke-width="0.5" fill="none"></polygon><polygon points="64.28136217069445, 166.10260586878138 76.2776428824537, 165.30604430289765 76.27467019837731, 175.77525167323486 65.21829941944408, 177.08319221742534 " stroke="Black" stroke-width="0.5" fill="none"></polygon><polygon points="66.1831261472247, 166.04907589763857 74.43381735607542, 167.2122496506936 74.82286371578002, 174.52268422592874 66.90588540822186, 175.3970936552992 " stroke="Black" stroke-width="0.5" fill="none"></polygon><polygon points="68.63532900025103, 168.78560314276072 73.82946038299798, 168.26047503521414 72.77346359123139, 172.7863457056523 67.60384770125019, 173.10500140053963 " stroke="Black" stroke-width="0.5" fill="none"></polygon><polygon points="70.03191540093293, 169.39661007830898 71.49065285657738, 169.54688390390345 71.89366555876494, 171.87576222897187 69.72033361871632, 171.5994545530852 " stroke="Black" stroke-width="0.5" fill="none"></polygon>
    </g>-22.303546246998366<g transform="
    rotate(17.45406115185409, 84.29014608097503, 190) 
    translate(0, 0)
    scale(1, 1)">
        <polygon points="61.31025238369036, 180.07893197691186 80.62799864117974, 179.754275901805 80.21201511738391, 200.54115135653342 61.80125399226905, 199.71603738564988 " stroke="Black" stroke-width="0.5" fill="none"></polygon><polygon points="61.58779467045848, 181.15449457125914 79.20509318179796, 181.08463177411676 79.7900001813577, 199.09060305882602 61.72382154731708, 200.38672791097352 " stroke="Black" stroke-width="0.5" fill="none"></polygon><polygon points="62.764860903056324, 183.15702211069782 76.96276963581641, 184.55842566681264 78.67564946582222, 196.8668976854728 64.70732493441679, 197.25854689511934 " stroke="Black" stroke-width="0.5" fill="none"></polygon><polygon points="66.16038916068581, 185.77317710312215 75.85240610029173, 184.55829940509517 77.04931060526592, 195.407000195455 65.98651875414012, 196.99239217772367 " stroke="Black" stroke-width="0.5" fill="none"></polygon>
    </g>24.529640742269187<g transform="
    rotate(0, 90, 10) 
    translate(0, 0)
    scale(1, 1)">
        <polygon points="80.51194679102728, 0.2280070449932321 101.89736629769637, 0.622416299145508 101.82609776866073, 20.340738181684706 80.05641924334459, 19.758801656901394 " stroke="Black" stroke-width="0.5" fill="none"></polygon><polygon points="81.40458260112752, 1.798767615067662 100.13283773393425, 1.4204369103732337 100.12399492786649, 18.833934718040062 81.77043985294384, 19.473440372363243 " stroke="Black" stroke-width="0.5" fill="none"></polygon><polygon points="84.2979262752088, 3.4203575736554575 97.97105056224676, 4.540711932735357 98.4406697741059, 16.883658733616343 82.72166760277258, 18.210437882770474 " stroke="Black" stroke-width="0.5" fill="none"></polygon><polygon points="85.59229817883741, 5.641939599012081 95.70823738734912, 4.554070053595003 97.1288558173029, 16.343746361665914 85.14236744528988, 16.766380796635048 " stroke="Black" stroke-width="0.5" fill="none"></polygon>
    </g>0<g transform="
    rotate(0.5080359813689017, 92.71748268113083, 30) 
    translate(0, 0)
    scale(1, 1)">
        <polygon points="79.96916660479366, 20.260629326290108 99.50889596012071, 19.999130220721394 99.55299414373391, 41.25937694562546 80.20302907833495, 40.703105531772664 " stroke="Black" stroke-width="0.5" fill="none"></polygon><polygon points="83.392086255463, 21.47803940596093 100.08664135415782, 21.630446281669627 98.83738930165268, 40.345846342924695 81.73400088486339, 39.01015965413276 " stroke="Black" stroke-width="0.5" fill="none"></polygon><polygon points="82.94056079034351, 24.24373709452014 98.4021503073672, 22.917427115032403 98.44783389078883, 37.315678015823536 83.55326275511024, 36.951179143366076 " stroke="Black" stroke-width="0.5" fill="none"></polygon><polygon points="85.2395342893836, 24.51502059410008 95.52913778715879, 26.006246258175857 95.504053980314, 36.582063811219186 84.92439459380239, 36.468082068302046 " stroke="Black" stroke-width="0.5" fill="none"></polygon>
    </g>-1.6643363137956337<g transform="
    rotate(4.952293419291744, 85.38935003725035, 50) 
    translate(0, 0)
    scale(1, 1)">
        <polygon points="80.5999742532136, 40.26266523956656 100.08331224689766, 39.520046205012044 100.49341123732825, 60.22443274482827 81.61757109043124, 60.32161875626303 " stroke="Black" stroke-width="0.5" fill="none"></polygon><polygon points="83.40519193321619, 42.45286570165896 99.98250213127831, 42.956653558970686 99.39871950454112, 59.88666481761743 82.31083866301803, 58.09546835765464 " stroke="Black" stroke-width="0.5" fill="none"></polygon><polygon points="83.83331253645935, 44.32742701379557 96.72920452112987, 43.99854460466703 98.35673980336557, 56.70582856871942 84.71251433895033, 58.19808886344764 " stroke="Black" stroke-width="0.5" fill="none"></polygon><polygon points="85.87737737706583, 44.80450361972274 96.81870440822071, 46.02372035235207 97.01005923622189, 56.53789684095971 86.08386494134773, 56.253391577153536 " stroke="Black" stroke-width="0.5" fill="none"></polygon><polygon points="87.02498817582283, 47.38968237054789 94.14077858118523, 46.662170382747526 95.13701238910828, 54.55019595771066 87.0141229010293, 55.15868683127055 " stroke="Black" stroke-width="0.5" fill="none"></polygon><polygon points="88.64751990402897, 47.89966260480664 93.73454317233504, 48.782662270828354 92.85284859370464, 52.8061502578267 88.20811623095435, 53.465655195156 " stroke="Black" stroke-width="0.5" fill="none"></polygon>
    </g>-3.856216494555021<g transform="
    rotate(6.960189567857816, 98.92369270848313, 70) 
    translate(0, 0)
    scale(1, 1)">
        <polygon points="79.87681238708534, 59.92298945237921 100.31909438331982, 60.08540101139964 100.03952946475376, 81.22780168315872 79.81833314855791, 81.42214131498734 " stroke="Black" stroke-width="0.5" fill="none"></polygon><polygon points="82.76323394719748, 63.29593112214653 100.05216213327047, 63.40304912592254 99.99728261725596, 79.00521765356044 81.86505567912128, 78.65809956647252 " stroke="Black" stroke-width="0.5" fill="none"></polygon><polygon points="83.77347955924856, 62.948424191403085 98.08402208725957, 63.306905711334764 96.87103881867996, 78.34810319762322 83.20811279852822, 78.02740645631225 " stroke="Black" stroke-width="0.5" fill="none"></polygon><polygon points="86.09967305727042, 66.13265366575493 97.1904616458737, 65.51252865634052 97.09436698961704, 76.53252795146847 85.68562863697122, 76.8126666837991 " stroke="Black" stroke-width="0.5" fill="none"></polygon>
    </g>2.972863505632123<g transform="
    rotate(5.9964414680844556, 80.62162237368497, 90) 
    translate(0, 0)
    scale(1, 1)">
        <polygon points="80.45342881122868, 80.41309285448492 99.51630387361625, 80.5461646914382 101.71375921150465, 100.84062779856816 80.29701662665414, 101.3017017103418 " stroke="Black" stroke-width="0.5" fill="none"></polygon><polygon points="82.0966115149545, 82.16835957512325 98.84571495565234, 82.90546599227359 99.62066667458735, 98.4210350574116 81.51339764695263, 100.08213868111142 " stroke="Black" stroke-width="0.5" fill="none"></polygon><polygon points="84.30279414481907, 83.01212491300382 97.00691227790354, 83.08618769826144 96.84146354252255, 98.05735756066889 84.70619707855148, 98.03472791507421 " stroke="Black" stroke-width="0.5" fill="none"></polygon><polygon points="85.70357668145591, 85.40152555104127 96.19962302978287, 84.39962693376954 95.88585792557348, 96.6704058714412 85.09522417799806, 95.68991070146838 " stroke="Black" stroke-width="0.5" fill="none"></polygon><polygon points="86.7224463264997, 87.54198386875662 94.6268464176669, 86.19167470983274 95.48404854954073, 94.76043089680135 86.51003607009966, 94.5414827166722 " stroke="Black" stroke-width="0.5" fill="none"></polygon><polygon points="87.74168638018187, 88.30949817135182 92.98073116427891, 88.66777039488568 93.20016217471783, 93.53294865044107 87.79399844174932, 93.4694236824959 " stroke="Black" stroke-width="0.5" fill="none"></polygon><polygon points="89.58140249932212, 89.63427328859599 91.68264945201412, 89.52458384955862 92.08838625969628, 91.4983597842661 89.67312954968894, 91.6389123114867 " stroke="Black" stroke-width="0.5" fill="none"></polygon>
    </g>-1.6003796044849494<g transform="
    rotate(14.948025528593448, 95.73097005513634, 110) 
    translate(0, 0)
    scale(1, 1)">
        <polygon points="81.39133378107803, 99.73668986424673 99.82654312332524, 100.57303704120449 100.50392053347247, 119.65555854472866 81.88756894395871, 119.51139224959924 " stroke="Black" stroke-width="0.5" fill="none"></polygon><polygon points="81.22047413180417, 103.16601185334055 98.99167910196734, 101.3444584763068 99.35135817416734, 118.8714398083875 83.0953928183568, 118.55731324891018 " stroke="Black" stroke-width="0.5" fill="none"></polygon><polygon points="84.43523158787858, 103.48866456260662 98.47893908732372, 103.96228093815148 98.24159996604477, 118.38953320165773 84.36440113134833, 117.69958285893172 " stroke="Black" stroke-width="0.5" fill="none"></polygon><polygon points="86.08579128581174, 105.10225335136379 96.92530456000527, 104.30954167881077 95.45904753168595, 116.9685775563789 84.95014887545966, 116.4001314576491 " stroke="Black" stroke-width="0.5" fill="none"></polygon><polygon points="86.4688927143441, 107.0054747698957 94.30889298155107, 107.55175366917585 94.80255550488086, 114.15832661305706 86.64581202300161, 114.89530335459271 " stroke="Black" stroke-width="0.5" fill="none"></polygon><polygon points="88.19223786966418, 108.58330656328624 93.81489259259392, 108.29625686204994 93.63755967894812, 113.67733721940883 87.74264646095634, 113.45325822458314 " stroke="Black" stroke-width="0.5" fill="none"></polygon><polygon points="89.85758664974041, 109.78897366580857 91.89327896558645, 110.06697235078822 91.76069018887547, 111.79380540466076 89.94913978296762, 111.40764590307185 " stroke="Black" stroke-width="0.5" fill="none"></polygon>
    </g>2.26653114461773<g transform="
    rotate(17.563101730061852, 98.64862531063847, 130) 
    translate(0, 0)
    scale(1, 1)">
        <polygon points="81.72514761899305, 121.5572677297386 100.47542033687239, 120.97245459072467 101.31257573515494, 141.61107296584794 79.55109543510534, 141.35481093403035 " stroke="Black" stroke-width="0.5" fill="none"></polygon><polygon points="83.14420745696209, 123.16237547662811 98.14489011070386, 121.71165559037343 98.98866471263788, 138.48214168619242 83.29588318256705, 139.21233596656344 " stroke="Black" stroke-width="0.5" fill="none"></polygon><polygon points="83.82203551789276, 123.2886090402846 97.88131116690907, 123.42235986453127 97.5328967667077, 138.51870872243694 83.2225897246364, 136.93120507627373 " stroke="Black" stroke-width="0.5" fill="none"></polygon><polygon points="84.88627628713371, 125.63345489528332 95.35696742324745, 125.27006955837645 96.87797351852787, 135.60972500757825 84.72727496845133, 135.50740031536776 " stroke="Black" stroke-width="0.5" fill="none"></polygon><polygon points="86.17647539899485, 126.67506379965015 94.4416237192176, 126.70807339423587 94.44846013531928, 135.27297833123822 86.72419537233476, 134.17692670645135 " stroke="Black" stroke-width="0.5" fill="none"></polygon><polygon points="87.73180443953676, 128.3952680968851 93.47024606913688, 127.99535261349577 93.26419165330903, 133.6510556302618 88.56008056973045, 132.65733807906412 " stroke="Black" stroke-width="0.5" fill="none"></polygon><polygon points="89.9995457760004, 129.93000821296093 91.78309861349287, 129.4629563533163 91.94581719857345, 132.0512373540821 89.72313575546305, 131.72142458540944 " stroke="Black" stroke-width="0.5" fill="none"></polygon>
    </g>15.566088357413356<g transform="
    rotate(13.605522703784679, 95.29792481527535, 150) 
    translate(0, 0)
    scale(1, 1)">
        <polygon points="79.73013877404087, 140.35859668761955 101.61880603616463, 141.1067846296591 100.0980088842477, 159.60045544670984 81.72041028049233, 160.81219372784292 " stroke="Black" stroke-width="0.5" fill="none"></polygon><polygon points="81.09450177397231, 143.33151863666117 98.35374393379684, 141.4407605390344 98.34969974541018, 160.12327788368003 82.68830672390155, 158.91460469865328 " stroke="Black" stroke-width="0.5" fill="none"></polygon><polygon points="83.33844788686055, 144.8021420824356 98.11578805788051, 144.36979195854715 97.0977184419095, 157.9227690497782 83.56802235918296, 158.10628423862659 " stroke="Black" stroke-width="0.5" fill="none"></polygon><polygon points="84.74752577695155, 144.73520840091018 95.56940376264636, 145.92707491110656 96.79589312046188, 156.42388945992118 85.79555428061005, 155.3664578883741 " stroke="Black" stroke-width="0.5" fill="none"></polygon><polygon points="87.55322437513911, 146.54845160279538 95.59055463691534, 146.6557540016494 95.26599987493404, 155.16764121087647 86.27058842075563, 155.53689085983768 " stroke="Black" stroke-width="0.5" fill="none"></polygon><polygon points="88.24498469873156, 148.35365575077972 92.94867058292367, 148.42366492901365 92.84787413141984, 153.80336229825744 88.15781710772215, 152.97091262597985 " stroke="Black" stroke-width="0.5" fill="none"></polygon><polygon points="89.8244528651219, 149.9597607752251 91.83644475884407, 149.42605459844367 91.67280334901153, 151.93417795231966 89.66421027506323, 151.7349768117117 " stroke="Black" stroke-width="0.5" fill="none"></polygon>
    </g>-16.79857529776697<g transform="
    rotate(-18.65038038317237, 96.61241066083889, 170) 
    translate(0, 0)
    scale(1, 1)">
        <polygon points="79.78334446282008, 160.79382317791124 99.91176632877281, 160.97492751076138 101.627942546165, 181.37970797576583 79.58083186335548, 181.7897569304186 " stroke="Black" stroke-width="0.5" fill="none"></polygon><polygon points="81.34812362448044, 162.5414611682576 98.8485410884465, 162.0904190996703 98.48872760611886, 180.41102723735864 81.69151390977422, 178.55367308691464 " stroke="Black" stroke-width="0.5" fill="none"></polygon><polygon points="82.85425819030097, 164.4930615440993 97.26830771646175, 163.59918971792274 96.94204253287687, 178.380465282128 83.8981882348728, 177.18530076021543 " stroke="Black" stroke-width="0.5" fill="none"></polygon><polygon points="85.18190825982578, 166.21019391237738 95.36024460791684, 166.05335896598956 95.44727609918957, 175.52128806143975 86.01987419359125, 175.52169211919477 " stroke="Black" stroke-width="0.5" fill="none"></polygon><polygon points="86.23275950752743, 167.1102018491549 94.72940672657133, 166.75877870686057 94.69925332497583, 174.49610190623633 86.19832774061797, 174.69703366799342 " stroke="Black" stroke-width="0.5" fill="none"></polygon><polygon points="87.93190015279474, 168.8239708981803 93.14027780556151, 167.97484346825482 92.99681497363949, 173.38860242631557 88.24718322845128, 172.68321633748775 " stroke="Black" stroke-width="0.5" fill="none"></polygon><polygon points="89.46302286634835, 169.5561012363797 91.54435135328498, 169.41023945345484 91.41676080142365, 171.69942876433524 89.8499673202889, 171.7213972954477 " stroke="Black" stroke-width="0.5" fill="none"></polygon>
    </g>12.166575106125322<g transform="
    rotate(-13.159349226986158, 99.69890645514718, 190) 
    translate(0, 0)
    scale(1, 1)">
        <polygon points="81.90422296106398, 181.93492856274472 100.38282712397879, 181.65616880801747 100.16466814799641, 200.561436235201 80.59874330466658, 199.54023141010978 " stroke="Black" stroke-width="0.5" fill="none"></polygon><polygon points="83.00769478740523, 183.3492103907983 99.1029970876753, 181.92135806987375 99.41443940611803, 198.71565566734452 83.41116539834033, 198.45425758668682 " stroke="Black" stroke-width="0.5" fill="none"></polygon><polygon points="83.50727663478763, 184.51808385134555 96.99528511856714, 183.5864700601087 98.63515835500112, 197.41253373223822 84.08857210463943, 198.05623633100836 " stroke="Black" stroke-width="0.5" fill="none"></polygon><polygon points="86.17176673470192, 184.9497093845027 95.48447293248596, 184.72042880582887 95.76813725159664, 195.82084908749073 85.20721762567933, 195.40304216963628 " stroke="Black" stroke-width="0.5" fill="none"></polygon><polygon points="86.7654546270295, 186.97844226167936 94.4085236528952, 186.88885543704623 94.22664671121095, 194.44006122526477 86.85925459048183, 195.03832817397847 " stroke="Black" stroke-width="0.5" fill="none"></polygon><polygon points="88.06161008706691, 188.51707813621385 93.26361950696054, 188.51686951780601 93.08579286032287, 193.14436658926803 88.28989876265788, 193.21185358742375 " stroke="Black" stroke-width="0.5" fill="none"></polygon><polygon points="90.08906753152327, 189.55827522360198 91.65815199573994, 189.40897899919858 91.73349100628225, 191.58571278246853 89.68108677441786, 191.43107642367585 " stroke="Black" stroke-width="0.5" fill="none"></polygon>
    </g>-18.22010188173647</svg>