<svg xmlns="http://www.w3.org/2000/svg" width="50%" height="50%" viewBox="0 0 100 200"><g transform="rotate(0, 0, 0)">
        <rect x="0" y="0" width="100" height="200" stroke="black" stroke-width="1" fill="none"></rect>
    </g><g transform="
    rotate(0, 10, 10) 
    translate(0, 0)
    scale(1, 1)">
        <rect x="0" y="0" width="20" height="20" stroke="Black" stroke-width="0.5" fill="none"></rect>
    </g>0<g transform="
    rotate(0.81787031490017, 11.49115558405757, 30) 
    translate(0, 0)
    scale(1, 1)">
        <rect x="0" y="20" width="20" height="20" stroke="Black" stroke-width="0.5" fill="none"></rect>
    </g>0.2037878128162065<g transform="
    rotate(5.0660119928285035, 5.7232533787257, 50) 
    translate(0, 0)
    scale(1, 1)">
        <rect x="0" y="40" width="20" height="20" stroke="Black" stroke-width="0.5" fill="none"></rect>
    </g>0.4960987029601265<g transform="
    rotate(4.566523361612319, 11.397443484299862, 70) 
    translate(0, 0)
    scale(1, 1)">
        <rect x="0" y="60" width="20" height="20" stroke="Black" stroke-width="0.5" fill="none"></rect>
    </g>0.5575613754385706<g transform="
    rotate(-10.084982176178295, 21.442248409263176, 90) 
    translate(0, 0)
    scale(1, 1)">
        <rect x="0" y="80" width="20" height="20" stroke="Black" stroke-width="0.5" fill="none"></rect>
    </g>3.502610356514218<g transform="
    rotate(10.210949566040057, 6.349432269519376, 110) 
    translate(0, 0)
    scale(1, 1)">
        <rect x="0" y="100" width="20" height="20" stroke="Black" stroke-width="0.5" fill="none"></rect>
    </g>-12.238184292901831<g transform="
    rotate(-1.8627399406677974, -7.795689416277558, 130) 
    translate(0, 0)
    scale(1, 1)">
        <rect x="0" y="120" width="20" height="20" stroke="Black" stroke-width="0.5" fill="none"></rect>
    </g>-3.25901908641044<g transform="
    rotate(8.542423174750144, 23.20279132113454, 150) 
    translate(0, 0)
    scale(1, 1)">
        <rect x="0" y="140" width="20" height="20" stroke="Black" stroke-width="0.5" fill="none"></rect>
    </g>-5.493073174123083<g transform="
    rotate(6.672320538537875, 12.855023485243642, 170) 
    translate(0, 0)
    scale(1, 1)">
        <rect x="0" y="160" width="20" height="20" stroke="Black" stroke-width="0.5" fill="none"></rect>
    </g>-5.21364907413578<g transform="
    rotate(-11.746049870931873, 18.66989653402088, 190) 
    translate(0, 0)
    scale(1, 1)">
        <rect x="0" y="180" width="20" height="20" stroke="Black" stroke-width="0.5" fill="none"></rect>
    </g>26.33368983329059<g transform="
    rotate(0, 30, 10) 
    translate(0, 0)
    scale(1, 1)">
        <rect x="20" y="0" width="20" height="20" stroke="Black" stroke-width="0.5" fill="none"></rect>
    </g>0<g transform="
    rotate(0.8460843589056939, 31.147454210143565, 30) 
    translate(0, 0)
    scale(1, 1)">
        <rect x="20" y="20" width="20" height="20" stroke="Black" stroke-width="0.5" fill="none"></rect>
    </g>1.0011546953251473<g transform="
    rotate(2.7288096698150017, 33.31561509532692, 50) 
    translate(0, 0)
    scale(1, 1)">
        <rect x="20" y="40" width="20" height="20" stroke="Black" stroke-width="0.5" fill="none"></rect>
    </g>3.1508496874301084<g transform="
    rotate(7.499211177807009, 28.612405795806318, 70) 
    translate(0, 0)
    scale(1, 1)">
        <rect x="20" y="60" width="20" height="20" stroke="Black" stroke-width="0.5" fill="none"></rect>
    </g>2.9197548921007783<g transform="
    rotate(-1.4118988794089553, 27.040065780669508, 90) 
    translate(0, 0)
    scale(1, 1)">
        <rect x="20" y="80" width="20" height="20" stroke="Black" stroke-width="0.5" fill="none"></rect>
    </g>-3.359636241009655<g transform="
    rotate(14.921009711840473, 33.221730421301984, 110) 
    translate(0, 0)
    scale(1, 1)">
        <rect x="20" y="100" width="20" height="20" stroke="Black" stroke-width="0.5" fill="none"></rect>
    </g>4.0152766892545095<g transform="
    rotate(-3.710953222713883, 46.53921246196904, 130) 
    translate(0, 0)
    scale(1, 1)">
        <rect x="20" y="120" width="20" height="20" stroke="Black" stroke-width="0.5" fill="none"></rect>
    </g>-8.326012348988364<g transform="
    rotate(-3.559117783659527, 35.99401145492827, 150) 
    translate(0, 0)
    scale(1, 1)">
        <rect x="20" y="140" width="20" height="20" stroke="Black" stroke-width="0.5" fill="none"></rect>
    </g>6.630030006759064<g transform="
    rotate(1.19812803942553, 15.058544215416696, 170) 
    translate(0, 0)
    scale(1, 1)">
        <rect x="20" y="160" width="20" height="20" stroke="Black" stroke-width="0.5" fill="none"></rect>
    </g>10.634909978280447<g transform="
    rotate(13.271244209310517, 19.866539689685116, 190) 
    translate(0, 0)
    scale(1, 1)">
        <rect x="20" y="180" width="20" height="20" stroke="Black" stroke-width="0.5" fill="none"></rect>
    </g>2.8933217068646293<g transform="
    rotate(0, 50, 10) 
    translate(0, 0)
    scale(1, 1)">
        <rect x="40" y="0" width="20" height="20" stroke="Black" stroke-width="0.5" fill="none"></rect>
    </g>0<g transform="
    rotate(1.4701189714940455, 49.38521200739294, 30) 
    translate(0, 0)
    scale(1, 1)">
        <rect x="40" y="20" width="20" height="20" stroke="Black" stroke-width="0.5" fill="none"></rect>
    </g>-0.8243476109431351<g transform="
    rotate(1.9900514259504138, 53.60237188362716, 50) 
    translate(0, 0)
    scale(1, 1)">
        <rect x="40" y="40" width="20" height="20" stroke="Black" stroke-width="0.5" fill="none"></rect>
    </g>4.279066553048324<g transform="
    rotate(1.5169311982979359, 53.17598146224148, 70) 
    translate(0, 0)
    scale(1, 1)">
        <rect x="40" y="60" width="20" height="20" stroke="Black" stroke-width="0.5" fill="none"></rect>
    </g>5.024962177889858<g transform="
    rotate(10.953063849019003, 44.10207387111568, 90) 
    translate(0, 0)
    scale(1, 1)">
        <rect x="40" y="80" width="20" height="20" stroke="Black" stroke-width="0.5" fill="none"></rect>
    </g>2.007230227625783<g transform="
    rotate(14.313303036473968, 41.02051110443629, 110) 
    translate(0, 0)
    scale(1, 1)">
        <rect x="40" y="100" width="20" height="20" stroke="Black" stroke-width="0.5" fill="none"></rect>
    </g>11.766246277563027<g transform="
    rotate(10.841083916923061, 66.1317805425812, 130) 
    translate(0, 0)
    scale(1, 1)">
        <rect x="40" y="120" width="20" height="20" stroke="Black" stroke-width="0.5" fill="none"></rect>
    </g>10.524783347253297<g transform="
    rotate(-14.458626248395055, 34.887262202398816, 150) 
    translate(0, 0)
    scale(1, 1)">
        <rect x="40" y="140" width="20" height="20" stroke="Black" stroke-width="0.5" fill="none"></rect>
    </g>-1.5317632814811404<g transform="
    rotate(8.1147655057567, 27.31791747556088, 170) 
    translate(0, 0)
    scale(1, 1)">
        <rect x="40" y="160" width="20" height="20" stroke="Black" stroke-width="0.5" fill="none"></rect>
    </g>-7.916021487118119<g transform="
    rotate(-23.220392572097513, 64.70587393012755, 190) 
    translate(0, 0)
    scale(1, 1)">
        <rect x="40" y="180" width="20" height="20" stroke="Black" stroke-width="0.5" fill="none"></rect>
    </g>3.5594552358521945<g transform="
    rotate(0, 70, 10) 
    translate(0, 0)
    scale(1, 1)">
        <rect x="60" y="0" width="20" height="20" stroke="Black" stroke-width="0.5" fill="none"></rect>
    </g>0<g transform="
    rotate(2.849441484883534, 72.7178617720466, 30) 
    translate(0, 0)
    scale(1, 1)">
        <rect x="60" y="20" width="20" height="20" stroke="Black" stroke-width="0.5" fill="none"></rect>
    </g>-2.7309767275997774<g transform="
    rotate(3.1605196249589245, 68.7543230849257, 50) 
    translate(0, 0)
    scale(1, 1)">
        <rect x="60" y="40" width="20" height="20" stroke="Black" stroke-width="0.5" fill="none"></rect>
    </g>-1.7840617061165283<g transform="
    rotate(-5.996426851064351, 63.94554030070438, 70) 
    translate(0, 0)
    scale(1, 1)">
        <rect x="60" y="60" width="20" height="20" stroke="Black" stroke-width="0.5" fill="none"></rect>
    </g>0.5199762711522791<g transform="
    rotate(-8.39772054990146, 60.69317152337106, 90) 
    translate(0, 0)
    scale(1, 1)">
        <rect x="60" y="80" width="20" height="20" stroke="Black" stroke-width="0.5" fill="none"></rect>
    </g>-11.191080696450701<g transform="
    rotate(-10.485459740351288, 84.80687675561714, 110) 
    translate(0, 0)
    scale(1, 1)">
        <rect x="60" y="100" width="20" height="20" stroke="Black" stroke-width="0.5" fill="none"></rect>
    </g>11.344563918647921<g transform="
    rotate(7.711817295484611, 81.91835331877726, 130) 
    translate(0, 0)
    scale(1, 1)">
        <rect x="60" y="120" width="20" height="20" stroke="Black" stroke-width="0.5" fill="none"></rect>
    </g>10.000064466372159<g transform="
    rotate(-6.652669523627321, 71.05025947758277, 150) 
    translate(0, 0)
    scale(1, 1)">
        <rect x="60" y="140" width="20" height="20" stroke="Black" stroke-width="0.5" fill="none"></rect>
    </g>4.517521631568137<g transform="
    rotate(-18.052364325291506, 71.01548687750552, 170) 
    translate(0, 0)
    scale(1, 1)">
        <rect x="60" y="160" width="20" height="20" stroke="Black" stroke-width="0.5" fill="none"></rect>
    </g>9.183310449236927<g transform="
    rotate(-7.8696017097339634, 74.29635759051573, 190) 
    translate(0, 0)
    scale(1, 1)">
        <rect x="60" y="180" width="20" height="20" stroke="Black" stroke-width="0.5" fill="none"></rect>
    </g>-11.212921936747964<g transform="
    rotate(0, 90, 10) 
    translate(0, 0)
    scale(1, 1)">
        <rect x="80" y="0" width="20" height="20" stroke="Black" stroke-width="0.5" fill="none"></rect>
    </g>0<g transform="
    rotate(0.22476383318199478, 89.59692472603349, 30) 
    translate(0, 0)
    scale(1, 1)">
        <rect x="80" y="20" width="20" height="20" stroke="Black" stroke-width="0.5" fill="none"></rect>
    </g>-2.0462447953652663<g transform="
    rotate(4.262690460409171, 84.65336788970636, 50) 
    translate(0, 0)
    scale(1, 1)">
        <rect x="80" y="40" width="20" height="20" stroke="Black" stroke-width="0.5" fill="none"></rect>
    </g>-0.4367367456391751<g transform="
    rotate(-6.48717643192398, 86.72215818889507, 70) 
    translate(0, 0)
    scale(1, 1)">
        <rect x="80" y="60" width="20" height="20" stroke="Black" stroke-width="0.5" fill="none"></rect>
    </g>4.863572033519761<g transform="
    rotate(-1.3150917205997636, 92.17550804587765, 90) 
    translate(0, 0)
    scale(1, 1)">
        <rect x="80" y="80" width="20" height="20" stroke="Black" stroke-width="0.5" fill="none"></rect>
    </g>-11.460572120393639<g transform="
    rotate(-8.144385446351787, 104.96712612185863, 110) 
    translate(0, 0)
    scale(1, 1)">
        <rect x="80" y="100" width="20" height="20" stroke="Black" stroke-width="0.5" fill="none"></rect>
    </g>14.558864673026065<g transform="
    rotate(-8.186005394182637, 78.73353193560155, 130) 
    translate(0, 0)
    scale(1, 1)">
        <rect x="80" y="120" width="20" height="20" stroke="Black" stroke-width="0.5" fill="none"></rect>
    </g>-2.4064670279602147<g transform="
    rotate(17.5383218618151, 71.56224831784327, 150) 
    translate(0, 0)
    scale(1, 1)">
        <rect x="80" y="140" width="20" height="20" stroke="Black" stroke-width="0.5" fill="none"></rect>
    </g>19.47242117114648<g transform="
    rotate(4.518090948127266, 77.26237337516147, 170) 
    translate(0, 0)
    scale(1, 1)">
        <rect x="80" y="160" width="20" height="20" stroke="Black" stroke-width="0.5" fill="none"></rect>
    </g>12.476695952173046<g transform="
    rotate(-20.48161009408585, 74.41409381168906, 190) 
    translate(0, 0)
    scale(1, 1)">
        <rect x="80" y="180" width="20" height="20" stroke="Black" stroke-width="0.5" fill="none"></rect>
    </g>11.68090669606351</svg>