<svg xmlns="http://www.w3.org/2000/svg" width="50%" height="50%" viewBox="0 0 85 85"><g transform="rotate(0, 0, 0)">
        <rect x="0" y="0" width="85" height="85" stroke="black" stroke-width="1" fill="none"></rect>
    </g><g transform="rotate(-25, 15, 13)"><rect x="15" y="13" width="10" height="10" stroke="rgb(64, 26, 41)" stroke-width="10" fill="none"></rect><rect x="15" y="13" width="10" height="10" stroke="rgb(66, 28, 43)" stroke-width="9" fill="none"></rect><rect x="15" y="13" width="10" height="10" stroke="rgb(68, 30, 45)" stroke-width="8" fill="none"></rect><rect x="15" y="13" width="10" height="10" stroke="rgb(70, 32, 47)" stroke-width="7" fill="none"></rect><rect x="15" y="13" width="10" height="10" stroke="rgb(72, 34, 49)" stroke-width="6" fill="none"></rect><rect x="15" y="13" width="10" height="10" stroke="rgb(74, 36, 51)" stroke-width="5" fill="none"></rect><rect x="15" y="13" width="10" height="10" stroke="rgb(76, 38, 53)" stroke-width="4" fill="none"></rect><rect x="15" y="13" width="10" height="10" stroke="rgb(78, 40, 55)" stroke-width="3" fill="none"></rect><rect x="15" y="13" width="10" height="10" stroke="rgb(80, 42, 57)" stroke-width="2" fill="none"></rect><rect x="15" y="13" width="10" height="10" stroke="rgb(82, 44, 59)" stroke-width="1" fill="none"></rect><rect x="15.5" y="13.5" width="9" height="9" stroke="rgb(84, 46, 61)" stroke-width="1" fill="none"></rect><rect x="16" y="14" width="8" height="8" stroke="rgb(86, 48, 63)" stroke-width="1" fill="none"></rect><rect x="16.5" y="14.5" width="7" height="7" stroke="rgb(88, 50, 65)" stroke-width="1" fill="none"></rect><rect x="17" y="15" width="6" height="6" stroke="rgb(90, 52, 67)" stroke-width="1" fill="none"></rect><rect x="17.5" y="15.5" width="5" height="5" stroke="rgb(92, 54, 69)" stroke-width="1" fill="none"></rect><rect x="18" y="16" width="4" height="4" stroke="rgb(94, 56, 71)" stroke-width="1" fill="none"></rect><rect x="18.5" y="16.5" width="3" height="3" stroke="rgb(96, 58, 73)" stroke-width="1" fill="none"></rect><rect x="19" y="17" width="2" height="2" stroke="rgb(98, 60, 75)" stroke-width="1" fill="none"></rect><rect x="19.5" y="17.5" width="1" height="1" stroke="rgb(100, 62, 77)" stroke-width="1" fill="none"></rect></g><g transform="rotate(-20, 40, 50)"><rect x="40" y="50" width="10" height="10" stroke="rgb(64, 26, 41)" stroke-width="10" fill="none"></rect><rect x="40" y="50" width="10" height="10" stroke="rgb(66, 28, 43)" stroke-width="9" fill="none"></rect><rect x="40" y="50" width="10" height="10" stroke="rgb(68, 30, 45)" stroke-width="8" fill="none"></rect><rect x="40" y="50" width="10" height="10" stroke="rgb(70, 32, 47)" stroke-width="7" fill="none"></rect><rect x="40" y="50" width="10" height="10" stroke="rgb(72, 34, 49)" stroke-width="6" fill="none"></rect><rect x="40" y="50" width="10" height="10" stroke="rgb(74, 36, 51)" stroke-width="5" fill="none"></rect><rect x="40" y="50" width="10" height="10" stroke="rgb(76, 38, 53)" stroke-width="4" fill="none"></rect><rect x="40" y="50" width="10" height="10" stroke="rgb(78, 40, 55)" stroke-width="3" fill="none"></rect><rect x="40" y="50" width="10" height="10" stroke="rgb(80, 42, 57)" stroke-width="2" fill="none"></rect><rect x="40" y="50" width="10" height="10" stroke="rgb(82, 44, 59)" stroke-width="1" fill="none"></rect><rect x="40.5" y="50.5" width="9" height="9" stroke="rgb(84, 46, 61)" stroke-width="1" fill="none"></rect><rect x="41" y="51" width="8" height="8" stroke="rgb(86, 48, 63)" stroke-width="1" fill="none"></rect><rect x="41.5" y="51.5" width="7" height="7" stroke="rgb(88, 50, 65)" stroke-width="1" fill="none"></rect><rect x="42" y="52" width="6" height="6" stroke="rgb(90, 52, 67)" stroke-width="1" fill="none"></rect><rect x="42.5" y="52.5" width="5" height="5" stroke="rgb(92, 54, 69)" stroke-width="1" fill="none"></rect><rect x="43" y="53" width="4" height="4" stroke="rgb(94, 56, 71)" stroke-width="1" fill="none"></rect><rect x="43.5" y="53.5" width="3" height="3" stroke="rgb(96, 58, 73)" stroke-width="1" fill="none"></rect><rect x="44" y="54" width="2" height="2" stroke="rgb(98, 60, 75)" stroke-width="1" fill="none"></rect><rect x="44.5" y="54.5" width="1" height="1" stroke="rgb(100, 62, 77)" stroke-width="1" fill="none"></rect></g><g transform="rotate(6, 52, 45)"><rect x="52" y="45" width="10" height="10" stroke="rgb(64, 26, 41)" stroke-width="10" fill="none"></rect><rect x="52" y="45" width="10" height="10" stroke="rgb(66, 28, 43)" stroke-width="9" fill="none"></rect><rect x="52" y="45" width="10" height="10" stroke="rgb(68, 30, 45)" stroke-width="8" fill="none"></rect><rect x="52" y="45" width="10" height="10" stroke="rgb(70, 32, 47)" stroke-width="7" fill="none"></rect><rect x="52" y="45" width="10" height="10" stroke="rgb(72, 34, 49)" stroke-width="6" fill="none"></rect><rect x="52" y="45" width="10" height="10" stroke="rgb(74, 36, 51)" stroke-width="5" fill="none"></rect><rect x="52" y="45" width="10" height="10" stroke="rgb(76, 38, 53)" stroke-width="4" fill="none"></rect><rect x="52" y="45" width="10" height="10" stroke="rgb(78, 40, 55)" stroke-width="3" fill="none"></rect><rect x="52" y="45" width="10" height="10" stroke="rgb(80, 42, 57)" stroke-width="2" fill="none"></rect><rect x="52" y="45" width="10" height="10" stroke="rgb(82, 44, 59)" stroke-width="1" fill="none"></rect><rect x="52.5" y="45.5" width="9" height="9" stroke="rgb(84, 46, 61)" stroke-width="1" fill="none"></rect><rect x="53" y="46" width="8" height="8" stroke="rgb(86, 48, 63)" stroke-width="1" fill="none"></rect><rect x="53.5" y="46.5" width="7" height="7" stroke="rgb(88, 50, 65)" stroke-width="1" fill="none"></rect><rect x="54" y="47" width="6" height="6" stroke="rgb(90, 52, 67)" stroke-width="1" fill="none"></rect><rect x="54.5" y="47.5" width="5" height="5" stroke="rgb(92, 54, 69)" stroke-width="1" fill="none"></rect><rect x="55" y="48" width="4" height="4" stroke="rgb(94, 56, 71)" stroke-width="1" fill="none"></rect><rect x="55.5" y="48.5" width="3" height="3" stroke="rgb(96, 58, 73)" stroke-width="1" fill="none"></rect><rect x="56" y="49" width="2" height="2" stroke="rgb(98, 60, 75)" stroke-width="1" fill="none"></rect><rect x="56.5" y="49.5" width="1" height="1" stroke="rgb(100, 62, 77)" stroke-width="1" fill="none"></rect></g><g transform="rotate(-3, 30, 10)"><rect x="30" y="10" width="10" height="10" stroke="rgb(194, 38, 33)" stroke-width="10" fill="none"></rect><rect x="30" y="10" width="10" height="10" stroke="rgb(196, 40, 35)" stroke-width="9" fill="none"></rect><rect x="30" y="10" width="10" height="10" stroke="rgb(198, 42, 37)" stroke-width="8" fill="none"></rect><rect x="30" y="10" width="10" height="10" stroke="rgb(200, 44, 39)" stroke-width="7" fill="none"></rect><rect x="30" y="10" width="10" height="10" stroke="rgb(202, 46, 41)" stroke-width="6" fill="none"></rect><rect x="30" y="10" width="10" height="10" stroke="rgb(204, 48, 43)" stroke-width="5" fill="none"></rect><rect x="30" y="10" width="10" height="10" stroke="rgb(206, 50, 45)" stroke-width="4" fill="none"></rect><rect x="30" y="10" width="10" height="10" stroke="rgb(208, 52, 47)" stroke-width="3" fill="none"></rect><rect x="30" y="10" width="10" height="10" stroke="rgb(210, 54, 49)" stroke-width="2" fill="none"></rect><rect x="30" y="10" width="10" height="10" stroke="rgb(212, 56, 51)" stroke-width="1" fill="none"></rect><rect x="30.5" y="10.5" width="9" height="9" stroke="rgb(214, 58, 53)" stroke-width="1" fill="none"></rect><rect x="31" y="11" width="8" height="8" stroke="rgb(216, 60, 55)" stroke-width="1" fill="none"></rect><rect x="31.5" y="11.5" width="7" height="7" stroke="rgb(218, 62, 57)" stroke-width="1" fill="none"></rect><rect x="32" y="12" width="6" height="6" stroke="rgb(220, 64, 59)" stroke-width="1" fill="none"></rect><rect x="32.5" y="12.5" width="5" height="5" stroke="rgb(222, 66, 61)" stroke-width="1" fill="none"></rect><rect x="33" y="13" width="4" height="4" stroke="rgb(224, 68, 63)" stroke-width="1" fill="none"></rect><rect x="33.5" y="13.5" width="3" height="3" stroke="rgb(226, 70, 65)" stroke-width="1" fill="none"></rect><rect x="34" y="14" width="2" height="2" stroke="rgb(228, 72, 67)" stroke-width="1" fill="none"></rect><rect x="34.5" y="14.5" width="1" height="1" stroke="rgb(230, 74, 69)" stroke-width="1" fill="none"></rect></g><g transform="rotate(4, 8, 37)"><rect x="8" y="37" width="10" height="10" stroke="rgb(194, 38, 33)" stroke-width="10" fill="none"></rect><rect x="8" y="37" width="10" height="10" stroke="rgb(196, 40, 35)" stroke-width="9" fill="none"></rect><rect x="8" y="37" width="10" height="10" stroke="rgb(198, 42, 37)" stroke-width="8" fill="none"></rect><rect x="8" y="37" width="10" height="10" stroke="rgb(200, 44, 39)" stroke-width="7" fill="none"></rect><rect x="8" y="37" width="10" height="10" stroke="rgb(202, 46, 41)" stroke-width="6" fill="none"></rect><rect x="8" y="37" width="10" height="10" stroke="rgb(204, 48, 43)" stroke-width="5" fill="none"></rect><rect x="8" y="37" width="10" height="10" stroke="rgb(206, 50, 45)" stroke-width="4" fill="none"></rect><rect x="8" y="37" width="10" height="10" stroke="rgb(208, 52, 47)" stroke-width="3" fill="none"></rect><rect x="8" y="37" width="10" height="10" stroke="rgb(210, 54, 49)" stroke-width="2" fill="none"></rect><rect x="8" y="37" width="10" height="10" stroke="rgb(212, 56, 51)" stroke-width="1" fill="none"></rect><rect x="8.5" y="37.5" width="9" height="9" stroke="rgb(214, 58, 53)" stroke-width="1" fill="none"></rect><rect x="9" y="38" width="8" height="8" stroke="rgb(216, 60, 55)" stroke-width="1" fill="none"></rect><rect x="9.5" y="38.5" width="7" height="7" stroke="rgb(218, 62, 57)" stroke-width="1" fill="none"></rect><rect x="10" y="39" width="6" height="6" stroke="rgb(220, 64, 59)" stroke-width="1" fill="none"></rect><rect x="10.5" y="39.5" width="5" height="5" stroke="rgb(222, 66, 61)" stroke-width="1" fill="none"></rect><rect x="11" y="40" width="4" height="4" stroke="rgb(224, 68, 63)" stroke-width="1" fill="none"></rect><rect x="11.5" y="40.5" width="3" height="3" stroke="rgb(226, 70, 65)" stroke-width="1" fill="none"></rect><rect x="12" y="41" width="2" height="2" stroke="rgb(228, 72, 67)" stroke-width="1" fill="none"></rect><rect x="12.5" y="41.5" width="1" height="1" stroke="rgb(230, 74, 69)" stroke-width="1" fill="none"></rect></g><g transform="rotate(-45, 48, 68)"><rect x="48" y="68" width="10" height="10" stroke="rgb(194, 38, 33)" stroke-width="10" fill="none"></rect><rect x="48" y="68" width="10" height="10" stroke="rgb(196, 40, 35)" stroke-width="9" fill="none"></rect><rect x="48" y="68" width="10" height="10" stroke="rgb(198, 42, 37)" stroke-width="8" fill="none"></rect><rect x="48" y="68" width="10" height="10" stroke="rgb(200, 44, 39)" stroke-width="7" fill="none"></rect><rect x="48" y="68" width="10" height="10" stroke="rgb(202, 46, 41)" stroke-width="6" fill="none"></rect><rect x="48" y="68" width="10" height="10" stroke="rgb(204, 48, 43)" stroke-width="5" fill="none"></rect><rect x="48" y="68" width="10" height="10" stroke="rgb(206, 50, 45)" stroke-width="4" fill="none"></rect><rect x="48" y="68" width="10" height="10" stroke="rgb(208, 52, 47)" stroke-width="3" fill="none"></rect><rect x="48" y="68" width="10" height="10" stroke="rgb(210, 54, 49)" stroke-width="2" fill="none"></rect><rect x="48" y="68" width="10" height="10" stroke="rgb(212, 56, 51)" stroke-width="1" fill="none"></rect><rect x="48.5" y="68.5" width="9" height="9" stroke="rgb(214, 58, 53)" stroke-width="1" fill="none"></rect><rect x="49" y="69" width="8" height="8" stroke="rgb(216, 60, 55)" stroke-width="1" fill="none"></rect><rect x="49.5" y="69.5" width="7" height="7" stroke="rgb(218, 62, 57)" stroke-width="1" fill="none"></rect><rect x="50" y="70" width="6" height="6" stroke="rgb(220, 64, 59)" stroke-width="1" fill="none"></rect><rect x="50.5" y="70.5" width="5" height="5" stroke="rgb(222, 66, 61)" stroke-width="1" fill="none"></rect><rect x="51" y="71" width="4" height="4" stroke="rgb(224, 68, 63)" stroke-width="1" fill="none"></rect><rect x="51.5" y="71.5" width="3" height="3" stroke="rgb(226, 70, 65)" stroke-width="1" fill="none"></rect><rect x="52" y="72" width="2" height="2" stroke="rgb(228, 72, 67)" stroke-width="1" fill="none"></rect><rect x="52.5" y="72.5" width="1" height="1" stroke="rgb(230, 74, 69)" stroke-width="1" fill="none"></rect></g><g transform="rotate(-45, 12, 30)"><rect x="12" y="30" width="10" height="10" stroke="rgb(230, 65, 60)" stroke-width="10" fill="none"></rect><rect x="12" y="30" width="10" height="10" stroke="rgb(232, 67, 62)" stroke-width="9" fill="none"></rect><rect x="12" y="30" width="10" height="10" stroke="rgb(234, 69, 64)" stroke-width="8" fill="none"></rect><rect x="12" y="30" width="10" height="10" stroke="rgb(236, 71, 66)" stroke-width="7" fill="none"></rect><rect x="12" y="30" width="10" height="10" stroke="rgb(238, 73, 68)" stroke-width="6" fill="none"></rect><rect x="12" y="30" width="10" height="10" stroke="rgb(240, 75, 70)" stroke-width="5" fill="none"></rect><rect x="12" y="30" width="10" height="10" stroke="rgb(242, 77, 72)" stroke-width="4" fill="none"></rect><rect x="12" y="30" width="10" height="10" stroke="rgb(244, 79, 74)" stroke-width="3" fill="none"></rect><rect x="12" y="30" width="10" height="10" stroke="rgb(246, 81, 76)" stroke-width="2" fill="none"></rect><rect x="12" y="30" width="10" height="10" stroke="rgb(248, 83, 78)" stroke-width="1" fill="none"></rect><rect x="12.5" y="30.5" width="9" height="9" stroke="rgb(250, 85, 80)" stroke-width="1" fill="none"></rect><rect x="13" y="31" width="8" height="8" stroke="rgb(252, 87, 82)" stroke-width="1" fill="none"></rect><rect x="13.5" y="31.5" width="7" height="7" stroke="rgb(254, 89, 84)" stroke-width="1" fill="none"></rect><rect x="14" y="32" width="6" height="6" stroke="rgb(254, 91, 86)" stroke-width="1" fill="none"></rect><rect x="14.5" y="32.5" width="5" height="5" stroke="rgb(254, 93, 88)" stroke-width="1" fill="none"></rect><rect x="15" y="33" width="4" height="4" stroke="rgb(254, 95, 90)" stroke-width="1" fill="none"></rect><rect x="15.5" y="33.5" width="3" height="3" stroke="rgb(254, 97, 92)" stroke-width="1" fill="none"></rect><rect x="16" y="34" width="2" height="2" stroke="rgb(254, 99, 94)" stroke-width="1" fill="none"></rect><rect x="16.5" y="34.5" width="1" height="1" stroke="rgb(254, 101, 96)" stroke-width="1" fill="none"></rect></g><g transform="rotate(-6, 40, 28)"><rect x="40" y="28" width="10" height="10" stroke="rgb(230, 65, 60)" stroke-width="10" fill="none"></rect><rect x="40" y="28" width="10" height="10" stroke="rgb(232, 67, 62)" stroke-width="9" fill="none"></rect><rect x="40" y="28" width="10" height="10" stroke="rgb(234, 69, 64)" stroke-width="8" fill="none"></rect><rect x="40" y="28" width="10" height="10" stroke="rgb(236, 71, 66)" stroke-width="7" fill="none"></rect><rect x="40" y="28" width="10" height="10" stroke="rgb(238, 73, 68)" stroke-width="6" fill="none"></rect><rect x="40" y="28" width="10" height="10" stroke="rgb(240, 75, 70)" stroke-width="5" fill="none"></rect><rect x="40" y="28" width="10" height="10" stroke="rgb(242, 77, 72)" stroke-width="4" fill="none"></rect><rect x="40" y="28" width="10" height="10" stroke="rgb(244, 79, 74)" stroke-width="3" fill="none"></rect><rect x="40" y="28" width="10" height="10" stroke="rgb(246, 81, 76)" stroke-width="2" fill="none"></rect><rect x="40" y="28" width="10" height="10" stroke="rgb(248, 83, 78)" stroke-width="1" fill="none"></rect><rect x="40.5" y="28.5" width="9" height="9" stroke="rgb(250, 85, 80)" stroke-width="1" fill="none"></rect><rect x="41" y="29" width="8" height="8" stroke="rgb(252, 87, 82)" stroke-width="1" fill="none"></rect><rect x="41.5" y="29.5" width="7" height="7" stroke="rgb(254, 89, 84)" stroke-width="1" fill="none"></rect><rect x="42" y="30" width="6" height="6" stroke="rgb(254, 91, 86)" stroke-width="1" fill="none"></rect><rect x="42.5" y="30.5" width="5" height="5" stroke="rgb(254, 93, 88)" stroke-width="1" fill="none"></rect><rect x="43" y="31" width="4" height="4" stroke="rgb(254, 95, 90)" stroke-width="1" fill="none"></rect><rect x="43.5" y="31.5" width="3" height="3" stroke="rgb(254, 97, 92)" stroke-width="1" fill="none"></rect><rect x="44" y="32" width="2" height="2" stroke="rgb(254, 99, 94)" stroke-width="1" fill="none"></rect><rect x="44.5" y="32.5" width="1" height="1" stroke="rgb(254, 101, 96)" stroke-width="1" fill="none"></rect></g><g transform="rotate(20, 65, 65)"><rect x="65" y="65" width="10" height="10" stroke="rgb(230, 65, 60)" stroke-width="10" fill="none"></rect><rect x="65" y="65" width="10" height="10" stroke="rgb(232, 67, 62)" stroke-width="9" fill="none"></rect><rect x="65" y="65" width="10" height="10" stroke="rgb(234, 69, 64)" stroke-width="8" fill="none"></rect><rect x="65" y="65" width="10" height="10" stroke="rgb(236, 71, 66)" stroke-width="7" fill="none"></rect><rect x="65" y="65" width="10" height="10" stroke="rgb(238, 73, 68)" stroke-width="6" fill="none"></rect><rect x="65" y="65" width="10" height="10" stroke="rgb(240, 75, 70)" stroke-width="5" fill="none"></rect><rect x="65" y="65" width="10" height="10" stroke="rgb(242, 77, 72)" stroke-width="4" fill="none"></rect><rect x="65" y="65" width="10" height="10" stroke="rgb(244, 79, 74)" stroke-width="3" fill="none"></rect><rect x="65" y="65" width="10" height="10" stroke="rgb(246, 81, 76)" stroke-width="2" fill="none"></rect><rect x="65" y="65" width="10" height="10" stroke="rgb(248, 83, 78)" stroke-width="1" fill="none"></rect><rect x="65.5" y="65.5" width="9" height="9" stroke="rgb(250, 85, 80)" stroke-width="1" fill="none"></rect><rect x="66" y="66" width="8" height="8" stroke="rgb(252, 87, 82)" stroke-width="1" fill="none"></rect><rect x="66.5" y="66.5" width="7" height="7" stroke="rgb(254, 89, 84)" stroke-width="1" fill="none"></rect><rect x="67" y="67" width="6" height="6" stroke="rgb(254, 91, 86)" stroke-width="1" fill="none"></rect><rect x="67.5" y="67.5" width="5" height="5" stroke="rgb(254, 93, 88)" stroke-width="1" fill="none"></rect><rect x="68" y="68" width="4" height="4" stroke="rgb(254, 95, 90)" stroke-width="1" fill="none"></rect><rect x="68.5" y="68.5" width="3" height="3" stroke="rgb(254, 97, 92)" stroke-width="1" fill="none"></rect><rect x="69" y="69" width="2" height="2" stroke="rgb(254, 99, 94)" stroke-width="1" fill="none"></rect><rect x="69.5" y="69.5" width="1" height="1" stroke="rgb(254, 101, 96)" stroke-width="1" fill="none"></rect></g></svg>