<svg xmlns="http://www.w3.org/2000/svg" width="50%" height="50%" viewBox="0 0 100 200"><g transform="rotate(0, 0, 0)">
        <rect x="0" y="0" width="100" height="200" stroke="black" stroke-width="1" fill="none"></rect>
    </g><polygon points="0.1815010218970513, 0.17612277395184106 21.908459653638232, -0.1913508288534861 20.987535651060025, 20.175884318174862 1.3833675207602438, 20.85695599288553 " stroke="Black" stroke-width="0.5" fill="none"></polygon><polygon points="2.166097525931682, 1.4579983060978765 19.680446143585918, 1.2741640046437284 18.090860870460226, 18.120558841562175 2.684325901541983, 18.99313295856121 " stroke="Black" stroke-width="0.5" fill="none"></polygon><polygon points="3.3493014777702785, 4.321393642846225 17.04003444159954, 3.905546900239849 17.53680150048763, 18.37798061125492 3.584429935937209, 18.22303047798981 " stroke="Black" stroke-width="0.5" fill="none"></polygon><polygon points="5.166162548063592, 5.028133641154568 16.297735355208097, 6.1710593875433055 17.124092474976962, 16.482495610029375 5.066157512067008, 15.861389681001555 " stroke="Black" stroke-width="0.5" fill="none"></polygon><polygon points="6.450289344772074, 7.433538863605138 14.399587151873705, 6.105517333769771 14.269620174274692, 15.259698131781617 6.461688721368649, 14.499748611059914 " stroke="Black" stroke-width="0.5" fill="none"></polygon><polygon points="7.607588837818467, 8.332860092943461 12.99795930240159, 7.998415100018753 13.803126909398106, 12.78414323707725 8.832102761049075, 13.317386296823225 " stroke="Black" stroke-width="0.5" fill="none"></polygon><polygon points="9.56018432043033, 9.596922671796607 11.980979870533265, 9.656973466492795 11.766068740792802, 11.846303633186487 9.57471143128349, 11.66568036831938 " stroke="Black" stroke-width="0.5" fill="none"></polygon><polygon points="-0.04985168801830042, 21.435994623210135 20.61424977706833, 21.15940742848839 19.675677030446064, 39.58144123250001 1.177093985749543, 40.03723741993901 " stroke="Black" stroke-width="0.5" fill="none"></polygon><polygon points="1.5520719300009984, 22.572027608454942 18.70969226331681, 23.026840817159894 20.345425195082615, 38.92089230945338 2.3216825606019302, 39.764765097815314 " stroke="Black" stroke-width="0.5" fill="none"></polygon><polygon points="4.239652704656327, 22.753664075542723 18.144202942387377, 24.268045451771933 16.966460058101568, 36.96730470689211 2.7223568835104035, 36.67870615267293 " stroke="Black" stroke-width="0.5" fill="none"></polygon><polygon points="5.6774264238684875, 26.06634138440857 16.381059523531977, 25.734580796385334 16.67365528403343, 35.330865333928344 4.562739854750335, 36.621857966411234 " stroke="Black" stroke-width="0.5" fill="none"></polygon><polygon points="6.260920786475936, 26.836348338005024 14.226467675523974, 27.41520889609502 15.173305532590174, 34.75160751242767 6.461639238055073, 34.61121807942254 " stroke="Black" stroke-width="0.5" fill="none"></polygon><polygon points="1.48473346157009, 39.932886870369046 21.437797883798666, 41.592307757478565 21.324762349905477, 61.071064920421804 0.08741287507601381, 61.92679501588049 " stroke="Black" stroke-width="0.5" fill="none"></polygon><polygon points="1.7046008969319744, 43.42033896141316 19.26621814644119, 42.53225752828236 19.81673751989847, 59.0616229422257 1.8993304084747944, 58.88955386845053 " stroke="Black" stroke-width="0.5" fill="none"></polygon><polygon points="4.1068337761708635, 43.63849432953233 18.2080380433726, 44.39102864992636 18.639021808522863, 57.38914564130456 3.576581524961936, 56.848491051243506 " stroke="Black" stroke-width="0.5" fill="none"></polygon><polygon points="6.1456632045737685, 44.76206345906277 16.813241275303902, 45.787189634647675 15.272069615711903, 56.67178941429533 5.581662383284565, 56.98656451704564 " stroke="Black" stroke-width="0.5" fill="none"></polygon><polygon points="7.563931142130716, 46.287586149370235 14.659950227745162, 46.60291748571807 14.840706191390787, 55.065026695825004 6.100149877503831, 55.45880046347431 " stroke="Black" stroke-width="0.5" fill="none"></polygon><polygon points="1.4277773670777605, 59.60416185024674 21.49125811318193, 61.81397054357407 21.029556948563272, 80.66661975418333 0.19050801768139292, 81.99664738914566 " stroke="Black" stroke-width="0.5" fill="none"></polygon><polygon points="1.7224256571930643, 62.84154245553476 18.269799671265957, 62.20991575256335 19.28817384213085, 79.48966531546216 1.6308202930466498, 80.05772282133849 " stroke="Black" stroke-width="0.5" fill="none"></polygon><polygon points="2.9028096324805315, 64.04907895912088 17.864948992989806, 63.352434365105665 18.705970416668066, 78.05633541506768 3.79057165139837, 77.75335818089334 " stroke="Black" stroke-width="0.5" fill="none"></polygon><polygon points="4.471303198794024, 66.05085596276795 15.697546487131167, 65.47732895430654 16.769360380786743, 77.12102382009688 5.662747268453501, 76.59069658159616 " stroke="Black" stroke-width="0.5" fill="none"></polygon><polygon points="6.211083026859646, 67.367509150893 14.892376441994822, 66.05714650929367 15.409290926673403, 75.008612259606 6.648789274617595, 74.777410711498 " stroke="Black" stroke-width="0.5" fill="none"></polygon><polygon points="8.141042184223062, 67.60152997857239 12.79088359792878, 67.74510744313456 12.992692220769126, 73.81253860822217 8.54220662503736, 73.44354007198223 " stroke="Black" stroke-width="0.5" fill="none"></polygon><polygon points="0.40603349061905425, 81.07183290057918 20.386116377916245, 81.41206779073535 21.26763662394882, 99.7368770378525 -0.10334307915679974, 101.69357715467926 " stroke="Black" stroke-width="0.5" fill="none"></polygon><polygon points="2.1662349442551023, 81.3997568839555 18.39341723837792, 82.6969423622843 20.152983870251994, 99.30869577136443 1.7483765213774072, 100.15922892960407 " stroke="Black" stroke-width="0.5" fill="none"></polygon><polygon points="2.717608242890897, 84.80725775148541 18.591129905734707, 83.73666246234458 17.889827053378866, 97.47567645256116 3.940244326351908, 98.32522061618029 " stroke="Black" stroke-width="0.5" fill="none"></polygon><polygon points="5.129057518583611, 85.81761050317743 15.403346137110086, 84.84760494441977 15.962489038794647, 95.77014683260023 4.558439028185375, 95.66684569805702 " stroke="Black" stroke-width="0.5" fill="none"></polygon><polygon points="7.250918657236027, 87.365002607386 15.471431633273959, 86.84298960911926 15.202744119375513, 95.07490277729393 7.201028441588353, 94.24618405312556 " stroke="Black" stroke-width="0.5" fill="none"></polygon><polygon points="7.991776110914786, 88.09036756750207 12.79321787094601, 88.46437116182882 12.781280973790683, 93.62111977406559 7.952467090652943, 93.59669491161449 " stroke="Black" stroke-width="0.5" fill="none"></polygon><polygon points="9.590714604932582, 89.69683307956423 12.004816187038195, 89.48801793507742 11.75349403255287, 91.42327921383975 9.817140465136662, 91.6234026970313 " stroke="Black" stroke-width="0.5" fill="none"></polygon><polygon points="20.471630269253673, 1.5630802795252663 41.39918864783327, 1.320769690138231 40.969396052958714, 21.10084584247721 19.62797086422456, 20.09601082722091 " stroke="Black" stroke-width="0.5" fill="none"></polygon><polygon points="21.61907729022454, 2.308218049050182 39.68972258256162, 2.7179251139427683 39.6644621002727, 18.103335981083966 23.35019457844089, 19.610862534742985 " stroke="Black" stroke-width="0.5" fill="none"></polygon><polygon points="24.199928414406646, 3.3813443823539946 38.159047042712345, 4.54615860899209 38.506121383392134, 18.360464459314166 23.996858305727375, 18.02872835283456 " stroke="Black" stroke-width="0.5" fill="none"></polygon><polygon points="24.317040307941365, 5.902361655890154 36.48273311981083, 4.3598851994384225 35.97282774600237, 16.209319569130784 24.5407348695259, 15.528018778827617 " stroke="Black" stroke-width="0.5" fill="none"></polygon><polygon points="27.26801035448942, 6.758665278610542 34.74491936725458, 6.858067955401304 34.594613560672215, 15.208535446980422 26.79012073071337, 14.486831993368025 " stroke="Black" stroke-width="0.5" fill="none"></polygon><polygon points="28.453854574246556, 7.946170706273647 33.37963864863691, 8.302538739393887 33.18146581430982, 12.682058244491618 28.495062807263476, 13.85736119983808 " stroke="Black" stroke-width="0.5" fill="none"></polygon><polygon points="29.798061210078043, 9.67210262484219 32.04056238116938, 9.49561813894271 31.75744817757765, 11.735680937234342 29.92470010020351, 11.808431337136216 " stroke="Black" stroke-width="0.5" fill="none"></polygon><polygon points="19.70867232244913, 19.65061074235628 41.615340783894986, 20.189255212649577 41.98726469508745, 41.98541559437329 20.984889621161212, 41.16059087439922 " stroke="Black" stroke-width="0.5" fill="none"></polygon><polygon points="23.216627598846063, 22.50542986172743 38.83467536295633, 23.241197213299326 39.951425147054834, 39.3684543420933 21.867171138584673, 39.96581801013177 " stroke="Black" stroke-width="0.5" fill="none"></polygon><polygon points="24.42049670087808, 24.634608700569757 37.840138910914405, 24.33494745852167 38.71951882611152, 37.17556007489074 24.450960582546255, 38.24382314576723 " stroke="Black" stroke-width="0.5" fill="none"></polygon><polygon points="24.381927378163613, 24.577910720246265 35.58010061395569, 25.996843718695054 35.723953261149646, 35.6110006875672 24.934993371814976, 36.77262279145481 " stroke="Black" stroke-width="0.5" fill="none"></polygon><polygon points="19.68254127379662, 39.84709390042374 41.886263200080364, 41.85540442608911 40.34749675940735, 59.990722967610004 20.96931647070003, 60.68114557798138 " stroke="Black" stroke-width="0.5" fill="none"></polygon><polygon points="21.919426530388527, 42.31312669771296 40.400968542276544, 41.32583948875647 38.807648721702215, 60.27510380310628 22.901191420530285, 58.82361611999064 " stroke="Black" stroke-width="0.5" fill="none"></polygon><polygon points="24.22533145878212, 42.83472436603341 37.693170728089626, 43.32361732507011 37.054268338057504, 56.69233480712981 24.746885149756196, 57.299978148946074 " stroke="Black" stroke-width="0.5" fill="none"></polygon><polygon points="25.49906753405474, 45.73595320701186 36.21824679370824, 45.65950898317702 35.689632309927724, 56.52560426844841 25.891913132646856, 55.51035690220376 " stroke="Black" stroke-width="0.5" fill="none"></polygon><polygon points="26.559766513418115, 46.76887273800929 34.63134928579158, 46.79217014141254 35.55921867428461, 54.44801218571463 27.134442581504292, 54.495037618895104 " stroke="Black" stroke-width="0.5" fill="none"></polygon><polygon points="28.376137214056925, 47.875718685512645 33.3950412747342, 48.381888111640606 33.186203509641395, 53.183600348202866 28.454572928163657, 53.2060478488143 " stroke="Black" stroke-width="0.5" fill="none"></polygon><polygon points="20.737856718205, 59.515708853623266 41.048301738962266, 60.07946691189996 39.84537395224821, 80.3946853762652 21.77459822248894, 81.13315965229143 " stroke="Black" stroke-width="0.5" fill="none"></polygon><polygon points="23.24281731033626, 62.47636427113679 38.44431668869667, 61.302985802570745 39.48517035892179, 79.91415801622497 23.0232296561536, 78.27621457144635 " stroke="Black" stroke-width="0.5" fill="none"></polygon><polygon points="24.04554549191087, 63.024698507165134 38.52240010004533, 63.83524592758751 36.82240984141174, 76.9977682539654 24.367538574219235, 77.70867064469584 " stroke="Black" stroke-width="0.5" fill="none"></polygon><polygon points="24.631915359928456, 65.06529051914045 35.45399961650749, 64.32453691491708 36.60843860241772, 76.93043450871804 25.101687199250026, 76.78060461092193 " stroke="Black" stroke-width="0.5" fill="none"></polygon><polygon points="19.839011859713956, 81.0118315434445 40.76472484525253, 79.59327972962386 39.859866833806315, 101.89494104500518 19.57367529761222, 99.96566595065356 " stroke="Black" stroke-width="0.5" fill="none"></polygon><polygon points="21.987084257470087, 82.95608356050592 39.876351143779445, 81.46466342492626 38.653724746348516, 99.46714205252815 22.23066339927171, 98.56656703874205 " stroke="Black" stroke-width="0.5" fill="none"></polygon><polygon points="24.045756275665443, 84.13162770914272 37.465422685403354, 83.03138421586242 38.19100858251693, 97.96756900990897 23.503488960739606, 97.72003643403627 " stroke="Black" stroke-width="0.5" fill="none"></polygon><polygon points="25.933084050301385, 84.72402968376709 36.16272053263313, 85.42537596266172 35.93426099037276, 95.39545993773062 24.773745354586058, 96.70286058239682 " stroke="Black" stroke-width="0.5" fill="none"></polygon><polygon points="26.841318577872578, 86.90545919319297 33.915387510849655, 87.38646695371024 35.4814217571305, 94.95427434410183 26.247677839727633, 95.07575515530019 " stroke="Black" stroke-width="0.5" fill="none"></polygon><polygon points="28.766211871341376, 87.77080245891763 32.60771563692258, 88.6339505344531 32.65680680506439, 93.85854394788477 28.77406007993636, 93.47040477397519 " stroke="Black" stroke-width="0.5" fill="none"></polygon><polygon points="29.614169205950184, 89.7848039305892 31.92531208882482, 89.53852121118018 32.06782911783308, 91.79696436186973 29.888870404272026, 91.89383229285417 " stroke="Black" stroke-width="0.5" fill="none"></polygon><polygon points="40.19242525396376, 1.7104144253264821 61.91331267641169, -0.43603872282500133 60.5365325396286, 21.90475154254274 39.79037174374863, 20.605343524512378 " stroke="Black" stroke-width="0.5" fill="none"></polygon><polygon points="42.36538794411819, 2.554962061380162 58.49154478924052, 1.9475283942022759 60.201789042765526, 19.65549379292054 41.829448757693264, 19.77773544319304 " stroke="Black" stroke-width="0.5" fill="none"></polygon><polygon points="43.131397750158115, 4.209865880592584 58.26071570983369, 4.629044056376895 56.803591041132755, 17.926613766021557 42.848170991972665, 18.56841669581909 " stroke="Black" stroke-width="0.5" fill="none"></polygon><polygon points="44.57492282158077, 4.322217966243155 55.99906045476255, 4.963571168079789 56.711825647008105, 17.108739734194756 45.61846879085185, 16.126829598364573 " stroke="Black" stroke-width="0.5" fill="none"></polygon><polygon points="47.0119800054572, 7.552090511449458 54.682998841785846, 6.583910599277047 54.37492269208478, 15.151012828480678 47.13676988997583, 14.46888118641374 " stroke="Black" stroke-width="0.5" fill="none"></polygon><polygon points="48.43640669522293, 8.333272432710867 53.65371457502999, 7.819341636094047 53.40763414002631, 13.272374961449435 47.597448217968456, 13.49443219731911 " stroke="Black" stroke-width="0.5" fill="none"></polygon><polygon points="49.64608440555848, 9.628562728154881 51.86722247670608, 9.396338281098338 51.71869772182565, 11.650331173361613 49.7540299767655, 11.904859712667319 " stroke="Black" stroke-width="0.5" fill="none"></polygon><polygon points="39.54452357517258, 21.490609641444653 59.61044977345191, 21.431444299266673 60.54429224223533, 40.14316492335209 39.591349109676514, 40.51987157832664 " stroke="Black" stroke-width="0.5" fill="none"></polygon><polygon points="42.536366113419625, 22.389161513815345 59.22001758571168, 21.4301462889395 58.23523463003609, 38.910923109636286 41.31330949577027, 39.17589946345366 " stroke="Black" stroke-width="0.5" fill="none"></polygon><polygon points="44.50471362900615, 22.85052080818379 58.30874164728244, 24.610228560583277 57.5713477962518, 38.092908054712 42.99240225942281, 37.71730447908061 " stroke="Black" stroke-width="0.5" fill="none"></polygon><polygon points="45.71734527606923, 25.882517143577477 56.26808709385577, 24.815506299622445 56.02509906420908, 36.58689836588212 45.87003871950638, 36.79013774072672 " stroke="Black" stroke-width="0.5" fill="none"></polygon><polygon points="46.81973504558949, 27.275295561280082 55.47542209040766, 27.314116801848535 55.385181678551206, 35.20008734523246 46.93382732663261, 35.018078993442515 " stroke="Black" stroke-width="0.5" fill="none"></polygon><polygon points="48.35375728787799, 28.843000376035107 52.868715420467325, 27.599741507782205 53.00059121912425, 32.727421676561434 48.731853307150516, 33.02292750909163 " stroke="Black" stroke-width="0.5" fill="none"></polygon><polygon points="39.63053696602199, 41.47761465338678 60.428700621050695, 40.59473299266331 60.13737494354176, 60.6291785928835 41.759908312231936, 59.604400021358664 " stroke="Black" stroke-width="0.5" fill="none"></polygon><polygon points="41.443624495002865, 42.1705620820096 59.78273679030178, 43.330512072156864 58.82119917129763, 58.129850608233376 41.092028132196596, 58.417560507239884 " stroke="Black" stroke-width="0.5" fill="none"></polygon><polygon points="43.04345644158602, 42.708371220053245 58.5158178322406, 44.35254274766218 57.68355317122777, 58.25859995138031 43.049521937975534, 57.386998531556614 " stroke="Black" stroke-width="0.5" fill="none"></polygon><polygon points="45.52842206209791, 44.69867646908064 55.75495639772855, 45.41240566577051 55.93075268927283, 56.80395069843639 45.78188360855116, 57.05594144783685 " stroke="Black" stroke-width="0.5" fill="none"></polygon><polygon points="46.925797578694386, 47.01192432710888 55.09721876448754, 46.37338631469218 53.97699516674723, 54.14016901557449 45.94163431097891, 54.149650622512176 " stroke="Black" stroke-width="0.5" fill="none"></polygon><polygon points="47.68573938566178, 47.862056872659444 52.80844020165753, 48.12654579720564 52.718443499854146, 53.70138775202156 47.66655527826789, 53.799315845795945 " stroke="Black" stroke-width="0.5" fill="none"></polygon><polygon points="49.62352388172477, 49.57728481630364 51.42773123755291, 49.49243264142451 52.05925829327127, 51.51102950884226 49.99320909468997, 52.025906563416314 " stroke="Black" stroke-width="0.5" fill="none"></polygon><polygon points="40.688979517597346, 60.520955624416615 61.218124028942015, 61.48265470096925 61.093392061214935, 80.91948278671185 40.98716925453829, 80.44555027419366 " stroke="Black" stroke-width="0.5" fill="none"></polygon><polygon points="42.777793359376865, 62.40944126263152 59.64257490853519, 62.976841776347726 59.21662528234262, 79.06274014599231 43.096529998488265, 79.91501079338227 " stroke="Black" stroke-width="0.5" fill="none"></polygon><polygon points="43.07301628411527, 63.29510978817617 56.98740702676248, 62.752478270596676 57.46050979114157, 77.31910970941082 44.28957857447885, 76.66629759459622 " stroke="Black" stroke-width="0.5" fill="none"></polygon><polygon points="45.64744195818069, 65.05153319558735 56.24483902904126, 65.17997625159315 57.14026892155199, 75.32409459330903 45.11511055752725, 76.2837352961417 " stroke="Black" stroke-width="0.5" fill="none"></polygon><polygon points="46.98035142329494, 66.95540799001475 55.22575047138953, 66.64885839070787 54.08682928109061, 74.39341603266152 46.44467426260872, 75.49207203806546 " stroke="Black" stroke-width="0.5" fill="none"></polygon><polygon points="47.60010716897244, 68.38632270972681 52.913833763950734, 67.72794691858032 53.00052546871902, 73.0900420070238 48.24545921118651, 73.4128664848713 " stroke="Black" stroke-width="0.5" fill="none"></polygon><polygon points="40.89929666712422, 80.27675456032227 60.14081327188509, 81.09913890956395 61.67108895591038, 100.76629855590299 41.91304185696417, 100.9887709588148 " stroke="Black" stroke-width="0.5" fill="none"></polygon><polygon points="42.27069538058242, 82.31270239788098 58.987037131898724, 81.32154603791021 58.27887497785094, 99.86297546581002 43.164197235182186, 99.64844795488744 " stroke="Black" stroke-width="0.5" fill="none"></polygon><polygon points="42.976037278119954, 83.65018981416527 57.83436760865294, 83.92422690416294 57.237978754510806, 97.27653036855244 43.471184026196205, 96.84210991964335 " stroke="Black" stroke-width="0.5" fill="none"></polygon><polygon points="45.13648565344581, 84.98842984099252 56.728979396711196, 85.59012554514177 56.439844695918225, 97.20538015947143 46.20163899575322, 95.52499345608209 " stroke="Black" stroke-width="0.5" fill="none"></polygon><polygon points="45.967893322356744, 86.9609205317182 55.37408484199997, 87.36903312674987 55.35656574256089, 95.52388469754315 45.916630233178296, 95.23005228618395 " stroke="Black" stroke-width="0.5" fill="none"></polygon><polygon points="48.164829657244894, 87.84747681809236 52.69046579475537, 88.76494638757465 53.15770184700966, 92.75216138181165 47.72971207724003, 93.26600696561165 " stroke="Black" stroke-width="0.5" fill="none"></polygon><polygon points="49.595346413773655, 89.50059550033924 51.77864957938996, 89.86990988905774 51.963012915246985, 91.98090118739982 49.5483910725576, 91.58476814236721 " stroke="Black" stroke-width="0.5" fill="none"></polygon><polygon points="59.873678496606125, 1.2292857801623542 81.88516562114975, 0.6578730641467707 80.17801438085556, 20.770002694550172 60.73088704792996, 19.708345582339238 " stroke="Black" stroke-width="0.5" fill="none"></polygon><polygon points="61.793676741903894, 3.2693083019985885 79.96166325558303, 2.4974488016336536 79.5493564907427, 19.177617804287333 61.90317244929448, 19.51346124357594 " stroke="Black" stroke-width="0.5" fill="none"></polygon><polygon points="64.14775500666661, 4.067319460635082 78.49766473526905, 3.711986198060603 78.6070996129738, 17.12650800853562 64.28431825305032, 17.643976188224034 " stroke="Black" stroke-width="0.5" fill="none"></polygon><polygon points="64.9564410171329, 5.297440393110907 76.98161097003616, 4.4372000028323795 75.53294073375785, 16.810220642552245 65.40624782063519, 16.83857864642966 " stroke="Black" stroke-width="0.5" fill="none"></polygon><polygon points="67.1037742648607, 6.347439732006433 74.89728693607103, 6.419475593451622 74.08039871649116, 15.124751445198594 67.42345363477467, 14.55295710234731 " stroke="Black" stroke-width="0.5" fill="none"></polygon><polygon points="68.73727960767164, 7.66458853300938 73.75408798443644, 7.6805622755190175 72.85732253200197, 12.971041778200105 68.57736103159137, 13.154948916148996 " stroke="Black" stroke-width="0.5" fill="none"></polygon><polygon points="59.84714219528847, 21.22967639761841 80.1408208309835, 19.906559523296153 81.55569264588823, 41.41862107286843 60.868372149578235, 41.54434803156364 " stroke="Black" stroke-width="0.5" fill="none"></polygon><polygon points="61.61960526562063, 22.824643263992208 79.10130976286376, 22.21760756537639 79.87665951056375, 39.12388017170931 61.70518825121637, 39.94479133127947 " stroke="Black" stroke-width="0.5" fill="none"></polygon><polygon points="62.936238909917925, 24.285059591938197 78.51168054807776, 24.536136261861866 78.47870496943867, 36.99997818499665 63.150305915759944, 37.39102786403586 " stroke="Black" stroke-width="0.5" fill="none"></polygon><polygon points="64.7849023783742, 25.483727835307626 76.78782868409246, 25.807059390963758 76.97059728579129, 37.00526949117523 65.86556492071207, 36.3845252941541 " stroke="Black" stroke-width="0.5" fill="none"></polygon><polygon points="61.619926843101304, 39.54949148274935 79.57255822508125, 39.9088933943493 79.94367181180004, 60.64094344306235 61.636729222707636, 61.330315267501014 " stroke="Black" stroke-width="0.5" fill="none"></polygon><polygon points="61.850460519984274, 42.31168623414005 79.06396284944339, 41.87119499668881 80.2243557360964, 59.875041871813025 62.798172397783006, 58.53528290101331 " stroke="Black" stroke-width="0.5" fill="none"></polygon><polygon points="64.51473086692418, 43.536849503712396 76.78542913725667, 43.46190750994714 77.02752552729143, 58.72960275248374 63.426051943913095, 57.05061839525083 " stroke="Black" stroke-width="0.5" fill="none"></polygon><polygon points="65.5112682519456, 45.875476204621734 76.02195328515981, 45.853279640981754 75.56568827543529, 56.851095842775216 64.72039740384584, 55.2954031968797 " stroke="Black" stroke-width="0.5" fill="none"></polygon><polygon points="67.51717625677482, 45.92769660452968 74.17236272203839, 46.65007023311581 74.13642743159902, 54.64196916119166 66.98340120063679, 55.35214817016329 " stroke="Black" stroke-width="0.5" fill="none"></polygon><polygon points="60.16572095271962, 60.514273920447 80.74491509954595, 60.72933485880137 79.56621734952051, 79.80566193212897 60.209424033428725, 80.46609861489259 " stroke="Black" stroke-width="0.5" fill="none"></polygon><polygon points="61.177725175707145, 62.84328927542856 78.85235258100894, 61.14200524360131 78.33299087772804, 79.9447801222305 61.4992807318964, 80.32075295947163 " stroke="Black" stroke-width="0.5" fill="none"></polygon><polygon points="63.60648842501228, 64.21264854063006 76.98514389737272, 63.8539617919669 77.34747938263433, 77.5186954678065 64.23642902660164, 77.73171727862396 " stroke="Black" stroke-width="0.5" fill="none"></polygon><polygon points="65.7623070495292, 64.86763083624797 75.30958902207153, 66.11281096041614 76.14111758262719, 76.51418171951381 64.599484484176, 76.98066755894965 " stroke="Black" stroke-width="0.5" fill="none"></polygon><polygon points="67.34434121752466, 66.36500688542262 75.08914414387642, 66.88878410639876 75.5380670947878, 74.8516001141707 65.90711011757146, 75.53916562415674 " stroke="Black" stroke-width="0.5" fill="none"></polygon><polygon points="68.80953258183789, 68.15349681995947 73.19407711332055, 67.91080425542219 73.76267184942047, 72.78963543875743 67.77137075571578, 73.85777385137565 " stroke="Black" stroke-width="0.5" fill="none"></polygon><polygon points="69.98425717706402, 69.67022304386435 71.65519970762963, 69.53269768948307 71.41543229457353, 71.9050299701854 69.897242560527, 71.45060782235201 " stroke="Black" stroke-width="0.5" fill="none"></polygon><polygon points="61.94420140792723, 81.40531782386998 81.46855775905368, 81.63931933207489 81.42188303910993, 100.55120976162267 60.81959377256893, 100.67444115930032 " stroke="Black" stroke-width="0.5" fill="none"></polygon><polygon points="63.41492791184935, 83.30345039672626 78.91694744982979, 82.4515982358411 79.66179971595751, 99.87738937469227 63.174692928755945, 98.51733296131519 " stroke="Black" stroke-width="0.5" fill="none"></polygon><polygon points="62.90923689354903, 84.63852379801403 78.57205706767077, 84.3088773841449 77.61345615847887, 97.79546846196135 64.64014722731902, 98.26485725629902 " stroke="Black" stroke-width="0.5" fill="none"></polygon><polygon points="65.00676829494179, 85.86467972782897 75.32521959498642, 85.56629721746718 76.75276028101734, 97.13967626867122 65.86481278559366, 97.19493942548948 " stroke="Black" stroke-width="0.5" fill="none"></polygon><polygon points="81.46177785422519, 0.2034006562922821 100.51018278154265, 0.5581642866979508 100.05602004070253, 21.25553421623668 79.67726779110846, 19.862745594678024 " stroke="Black" stroke-width="0.5" fill="none"></polygon><polygon points="81.230492381604, 2.620236061040635 98.94281536900333, 2.026799907616451 99.32298087296292, 19.950650599212892 81.73788069910074, 19.057335607586744 " stroke="Black" stroke-width="0.5" fill="none"></polygon><polygon points="83.864471455446, 4.607257966109871 98.30187604082695, 2.719761791504764 97.6350239933376, 16.849162966211505 84.39714391858963, 17.812939683528935 " stroke="Black" stroke-width="0.5" fill="none"></polygon><polygon points="84.86150372388549, 5.106892120968438 95.71716300943925, 5.072400455183224 96.71513953084946, 16.115776777207675 85.68835284266581, 15.854064456828784 " stroke="Black" stroke-width="0.5" fill="none"></polygon><polygon points="86.7572235509014, 7.033213902473327 94.77814275334572, 7.367292808923036 94.5353687295362, 15.147442502708294 87.45165193451182, 14.874701929035872 " stroke="Black" stroke-width="0.5" fill="none"></polygon><polygon points="88.17058013281786, 8.334279683235827 92.90794624372855, 7.719456483446572 92.88306344129961, 13.349858472332196 87.62539493099275, 13.012736427577828 " stroke="Black" stroke-width="0.5" fill="none"></polygon><polygon points="89.84114153049093, 9.441323123057701 91.85004169872258, 9.738960775256444 91.54714123355222, 11.693749870492605 89.48138535432962, 11.563027256751518 " stroke="Black" stroke-width="0.5" fill="none"></polygon><polygon points="80.5457810260543, 19.86920422583006 100.91317057710553, 20.08639393042541 99.87051995222289, 40.580478606717776 79.66377127787669, 39.60964885455356 " stroke="Black" stroke-width="0.5" fill="none"></polygon><polygon points="82.86488358510746, 21.31166042134823 99.34100473900861, 22.401872102427053 99.60956677301093, 38.15056617733197 82.060164214285, 40.368354823824156 " stroke="Black" stroke-width="0.5" fill="none"></polygon><polygon points="83.18877590861997, 23.758415428869966 97.52486261106542, 23.181324609804985 97.17808766021669, 38.72986510754646 83.57368531260403, 38.575892282107894 " stroke="Black" stroke-width="0.5" fill="none"></polygon><polygon points="85.3092109305687, 24.759466175834756 96.06814897581636, 24.817482456790696 96.98387319951628, 35.514732626642314 85.04921425068864, 36.11752725643596 " stroke="Black" stroke-width="0.5" fill="none"></polygon><polygon points="87.53472526275502, 26.850498258755703 93.96260913349619, 26.54029972065206 94.41945238000042, 34.10080330497424 86.56066059141898, 35.46334851682447 " stroke="Black" stroke-width="0.5" fill="none"></polygon><polygon points="88.0196734509659, 27.75151175786175 92.71526997675048, 28.50539227901955 93.45959129530985, 32.764171119135696 87.92046836527926, 33.017622985448014 " stroke="Black" stroke-width="0.5" fill="none"></polygon><polygon points="89.60704257346609, 29.576371652299056 91.55995275560804, 29.670640124666598 91.64792710367807, 31.89371956659977 89.62016806571627, 31.768582122061083 " stroke="Black" stroke-width="0.5" fill="none"></polygon><polygon points="81.54811450018829, 41.260826465267876 100.76730427683177, 41.04531415611286 100.96292206925655, 61.60306192635983 79.58457408228823, 59.56907816810864 " stroke="Black" stroke-width="0.5" fill="none"></polygon><polygon points="82.3193545405621, 41.836982213758894 98.45372038879435, 41.17057484796232 100.04241355940735, 60.09283310232789 82.9346025526315, 59.18782974476452 " stroke="Black" stroke-width="0.5" fill="none"></polygon><polygon points="83.6261774803448, 43.08356269515111 97.31432046212618, 44.4327023677418 96.96479668761658, 57.029975800968955 84.65684006926669, 58.818412211492344 " stroke="Black" stroke-width="0.5" fill="none"></polygon><polygon points="85.35880561830872, 44.64150983823149 96.20771190208043, 45.923392393936496 95.44148594931933, 55.733532128016904 84.9448020594555, 57.13944483279753 " stroke="Black" stroke-width="0.5" fill="none"></polygon><polygon points="86.05731479254631, 46.28100966362781 94.11867749606836, 46.15160380413466 94.7939933908274, 55.261960544141644 86.57136527845033, 54.65263005444431 " stroke="Black" stroke-width="0.5" fill="none"></polygon><polygon points="88.74899588930538, 47.951743949104525 93.57566670348595, 47.63964802672821 93.89912375241859, 53.26042181865836 87.91060073622327, 53.37890923215205 " stroke="Black" stroke-width="0.5" fill="none"></polygon><polygon points="89.48299875013703, 49.875701467646756 92.03513709219246, 49.403383995646436 91.51364228700618, 51.815664385706974 89.51859559888682, 52.015912463087716 " stroke="Black" stroke-width="0.5" fill="none"></polygon><polygon points="80.41008608218388, 60.62029352037729 101.20701575861472, 60.82507873886201 100.6499364820637, 81.07228845548312 81.05526385865744, 81.0771969849065 " stroke="Black" stroke-width="0.5" fill="none"></polygon><polygon points="82.7026433578453, 63.17222861658786 98.49833415044885, 61.80671646128849 98.11906707412821, 79.81198665708712 82.2442152486349, 79.74806448667529 " stroke="Black" stroke-width="0.5" fill="none"></polygon><polygon points="82.82429198162008, 62.994938745365346 97.37153183016014, 64.71089766253385 96.85469945765315, 78.56623858275171 84.74094467892513, 77.68670046744637 " stroke="Black" stroke-width="0.5" fill="none"></polygon><polygon points="84.82753134978918, 64.3306223002159 95.45080341111274, 65.13124215666656 97.1460483015645, 76.08761434827187 86.04783453526565, 76.27100187003312 " stroke="Black" stroke-width="0.5" fill="none"></polygon><polygon points="81.91929765855852, 79.62158763455817 101.8770869079884, 80.27115066030683 100.80465982208278, 101.85219384088343 80.38440752552319, 100.41301758463841 " stroke="Black" stroke-width="0.5" fill="none"></polygon><polygon points="81.78638087485814, 82.95354885435322 99.1256140347678, 81.14173515013478 98.73531052344659, 99.64936005714942 81.52204234301746, 98.88002146268587 " stroke="Black" stroke-width="0.5" fill="none"></polygon><polygon points="82.68198743345717, 84.00454113575866 98.55412725994208, 83.89030485800679 97.1734744512842, 97.37966259504184 82.9526159217504, 96.9998921964878 " stroke="Black" stroke-width="0.5" fill="none"></polygon><polygon points="85.97400538568489, 84.44505071484987 95.3127275535745, 86.03289993932246 96.4918988662629, 95.74236326074997 85.31880451222547, 96.35866625351328 " stroke="Black" stroke-width="0.5" fill="none"></polygon><polygon points="87.48033282931124, 87.26040771833503 94.54132265178038, 86.45426295715808 95.20304385080513, 94.1462704574293 86.72735417871864, 94.61817381141516 " stroke="Black" stroke-width="0.5" fill="none"></polygon><polygon points="88.64991784048094, 88.37335396919978 93.49821003379614, 87.72715073308774 92.61160294394456, 92.85028612079171 87.75854400446677, 93.2892940636373 " stroke="Black" stroke-width="0.5" fill="none"></polygon><polygon points="89.44791193773604, 89.64434327943691 91.75386637111126, 89.78737108001778 91.68061925887031, 91.43400871681251 90.09684247874755, 91.7500736696752 " stroke="Black" stroke-width="0.5" fill="none"></polygon></svg>